<?xml version="1.0" encoding="utf-8"?>
<!-- Generator: Adobe Illustrator 24.0.1, SVG Export Plug-In . SVG Version: 6.00 Build 0)  -->
<svg version="1.1" id="Layer_1" xmlns="http://www.w3.org/2000/svg" xmlns:xlink="http://www.w3.org/1999/xlink" x="0px" y="0px"
	 viewBox="0 0 1000 1000" style="enable-background:new 0 0 1000 1000;" xml:space="preserve">
<style type="text/css">
	.st0{fill:#203E78;}
	.st1{fill:#FDD300;}
</style>
<g>
	<g>
		<g>
			<g>
				<path class="st0" d="M136.66,499.3c0-7.08,1.15-14.06,1.91-21.06c0.7-6.56,1.69-13.06,2.54-19.62
					c4.81-37.37,11.52-74.36,23.56-110.11c10.75-31.92,25.58-62.01,43.98-90.3c35.66-54.83,82.94-96.16,142.4-123.64
					c29.33-13.56,60.18-21.27,91.72-27.75c33.18-6.82,66.46-6.07,99.7-4.51c17.32,0.81,34.56,5.67,51.6,9.69
					c53.96,12.71,102.34,37.26,146.2,70.82c44.2,33.83,78.38,75.74,99.64,127.49c13.14,31.99,20.97,65.28,22.82,99.96
					c1.97,37.03-0.73,73.66-8.74,109.84c-7.16,32.3-17.13,63.76-30.67,93.96c-7.48,16.68-15.98,32.91-24.13,49.29
					c-2.59,5.21-4.38,5.29-8.38,1.33c-12.49-12.34-24.93-24.73-37.69-36.79c-4.28-4.05-4.69-7.03-1.24-12.08
					c14.71-21.54,23.34-45.73,29.6-70.87c8.17-32.84,11.33-66.21,9.93-99.96c-2.53-61.2-17.89-118.39-54.93-168.23
					c-30.62-41.21-71.42-68.11-120.26-83.38c-38.17-11.93-77.34-15.72-117.04-14.7c-44.43,1.14-87.72,8.86-129,25.74
					c-53.73,21.98-98.59,56.1-135.43,100.83c-25.62,31.11-46.28,65.26-62.91,101.99c-11.6,25.62-21.09,51.92-28.51,79.01
					c-0.7,2.57-1.36,4.32-2.28,7.69c-0.59,2.18-2.52,7.96-3.9,10.33C136.69,501.81,136.77,501.05,136.66,499.3z"/>
				<path class="st1" d="M393.47,819.14c-1.57,1.37-2.98,3.63-4.75,3.96c-25.18,4.49-50.32,9.26-75.6,12.9
					c-27.02,3.9-54.17,6.63-81.27,9.96c-13.06,1.61-13.41,1-10.06-11.34c8.37-30.73,16.32-61.58,24.55-92.37
					c7.12-26.73,14.36-53.42,21.53-80.13c4.65-17.32,9.22-34.67,13.88-51.99c1.78-6.61,3.63-7.49,10.32-5.06
					c17.57,6.37,32.97,16.61,48.44,26.79c2.96,1.97,5.89,3.98,9.2,6.22c1.3,0.88,1.87,2.52,1.4,4.02c-0.6,1.87-1.59,4.19-2.14,5.24
					c-4.31,8.31-10.71,4.24-16.22,1.95c-6.5-2.71-12.69-5.21-19.48-7.67c-3.82-1.38-5.59-0.45-6.53,3.53
					c-6.57,27.46-13.28,54.89-19.89,82.33c-5.28,21.87-10.55,43.77-15.77,65.66c-0.71,2.92-1.22,5.88-1.9,9.18
					c1.78,0.22,2.92,0.67,3.9,0.45c22.14-5.18,44.11-2.04,65.91,1.92c16.87,3.04,33.48,7.55,50.17,11.59
					C390.73,816.63,392.04,818.14,393.47,819.14z"/>
				<path class="st1" d="M593.04,390.73c0.45,15.89-6.43,29.28-15.26,41.71c-15.41,21.67-35.59,38.16-57.97,52.09
					c-12.92,8.06-25.16,16.85-32.22,30.85c-2.18,4.35-3.45,9.3-4.31,14.12c-0.92,5.14,0.92,6.3,5.82,4.53
					c9.12-3.33,18.1-7.16,27.4-9.9c6.14-1.84,12.71-2.9,19.12-2.98c11.14-0.14,18.02,7.12,18.67,18.22
					c0.78,13.53-3.47,26-7.92,38.42c-2.39,6.61-5.26,13.08-8.04,19.55c0,0,0,0.02-0.02,0.04c-0.86,1.53-28.26,50.68-44.3,68.11
					c-0.47,0.49-0.86,1.02-1.2,1.55c-0.04,0-0.04,0.02-0.04,0.04c-7.47,7.67-15.12,15.14-22.75,22.65c-1.88,1.84-3.28,3.82-5.5,5.27
					c-1.62,2.03-5.25,4.75-5.72,4.34c0.45-1.27,3.85-9.07,4.55-10.17c13.53-21.36,24.91-43.75,32.59-67.89
					c3.43-10.79,5.86-21.81,4.24-33.26c-2.14-15-12.12-20.75-25.38-13.16c-11.83,6.77-23.75,14.3-33.44,23.73
					c-32.36,31.59-63.93,63.99-95.39,96.45c-13.14,13.57-25.18,28.16-37.81,42.2c-1.27,1.41-3.16,2.26-4.75,3.37
					c-0.57-0.45-1.16-0.92-1.73-1.39c16.1-29.99,31.48-60.1,47.58-90.12l4.06-8.69c2.24-4.39,4.26-8.04,6.27-12.64
					c11.66-26.73,21.98-54.03,31.75-81.47c4.06-11.34,5.79-23.73,7.08-35.79c1.24-11.57-3.98-16.77-15.65-15.41
					c-10.28,1.2-20.4,4.45-30.4,7.45c-9.04,2.73-16.92,9.08-26.95,8.67c-1.8-0.06-3.55-0.65-5.33-1c0.37-1.73,0.35-3.71,1.18-5.2
					c8.49-14.75,18.3-28.55,34.34-35.69c8.45-3.77,17.63-6.77,26.75-7.88c21.2-2.55,42.54-4.22,63.87-5.39
					c39.81-2.16,75.01-16.53,106.69-39.89c11.61-8.55,21.98-18.81,33.01-28.2c1.47-1.24,3.47-1.88,5.24-2.78
					C591.82,387.05,592.98,388.87,593.04,390.73z"/>
				<path class="st1" d="M509.23,652.85c0,0,22.38-36.45,30.44-49.41c0.49-0.78,1.59-0.93,2.52-0.93l12.44,0
					c3.49-0.02,5.61,1.45,6.61,5c6.22,22.02,12.61,44.01,18.87,66.03c7.18,25.12,14.3,50.26,21.42,75.39
					c6.98,24.59,13.94,49.17,20.89,73.76c1.1,3.86,2.41,7.65,3.41,11.53c1.37,5.28-0.1,6.45-5.51,5.45
					c-16.3-2.96-32.57-6.71-49.01-8.3c-30.91-2.98-61.76-1.06-92.43,3.94c-39.22,6.41-76.88,17.91-113.14,33.99
					c-11.83,5.24-23.24,11.45-34.87,17.18c-1.47,0.73-3.04,1.31-4.57,1.94c-0.53-0.47-1.06-0.92-1.59-1.39
					c1.22-1.88,2.18-4.04,3.73-5.59c17.65-17.81,38.22-31.5,60.85-42.13c34.59-16.24,70.8-27.3,108.47-33.38
					c22.02-3.57,44.2-6.16,66.33-8.9c4.45-0.55,5.47-2.2,4.65-6.3c-7.08-35.54-14.1-71.13-21.12-106.69
					c-2.33-11.79-4.73-23.57-6.92-35.4c-0.71-3.95-1.85-4.7-6.71-3.19c-6.49,2.01-11.9,3.49-17.88,5.23L509.23,652.85z"/>
				<path class="st0" d="M413.5,865.97c1.66-1.28,3.13-3,5-3.78c32.67-13.72,66.99-19.23,102.18-20.18
					c37.72-1.03,75.15,1.92,112.28,8.66c0.9,0.16,1.85,0.02,3.64,0.02c-0.31-2.05-0.4-3.83-0.87-5.5
					c-12.09-42.97-24.23-85.93-36.34-128.9c-5.23-18.54-10.41-37.09-15.63-55.64c-1.24-4.4,0.11-6.09,4.44-4.72
					c6.91,2.19,13.75,4.66,20.41,7.49c1.83,0.78,3.56,3,4.31,4.95c11.09,28.84,22.22,57.66,32.89,86.65
					c7.51,20.4,14.77,40.91,21.35,61.61c6.3,19.8,11.59,39.93,17.32,59.91c1.26,4.38,2.93,8.69,3.69,13.16
					c1.05,6.17-0.71,7.56-6.76,6.49c-36.27-6.39-72.47-13.32-108.86-18.96c-39.43-6.12-79.13-10.43-119.1-10.87
					c-11.8-0.13-23.61,1.14-35.42,1.72c-1.24,0.06-2.49-0.24-3.74-0.37C414.04,867.14,413.77,866.55,413.5,865.97z"/>
				<path class="st0" d="M205.81,854.58c9.79-0.58,18.5-0.85,27.16-1.65c27.73-2.54,55.45-5.3,83.18-7.88
					c1.28-0.12,2.65,0.7,3.98,1.08c-0.86,1.32-1.41,3.23-2.62,3.86c-12.5,6.5-24.88,13.34-37.75,19.02
					c-20.96,9.25-43.52,12.63-65.93,16.31c-17.89,2.94-35.78,5.82-52.6,13.1c-1.23,0.53-3.01,0.37-4.29-0.12
					c-0.47-0.18-0.59-2.34-0.25-3.41c5.87-18.33,11.91-36.61,17.77-54.95c10.45-32.7,20.85-65.41,31.2-98.14
					c7.07-22.37,14.04-44.77,20.95-67.18c1.33-4.33,3.68-7.23,8.08-8.84c7.15-2.62,14.11-5.78,21.22-8.5
					c1.46-0.56,3.67-0.84,4.76-0.11c0.81,0.54,0.81,3.08,0.41,4.51c-13.03,45.47-26.18,90.91-39.25,136.37
					C216.56,816.35,211.44,834.68,205.81,854.58z"/>
				<path class="st1" d="M452.52,378.9c11.84,0.08,22.97,4.03,31.54,13.38c12.02,13.12,10.75,29.73-2.69,41.37
					c-18.17,15.74-47.01,13.88-62.91-4.05c-9.12-10.28-9.31-25.09-0.45-35.53C426.85,383.66,438.25,378.95,452.52,378.9z"/>
			</g>
			<polygon class="st1" points="450.63,285.29 460.35,315.2 491.8,315.2 466.36,333.69 476.07,363.6 450.63,345.11 425.19,363.6 
				434.91,333.69 409.46,315.2 440.91,315.2 			"/>
			<polygon class="st1" points="683.5,316.18 693.22,346.09 724.66,346.09 699.22,364.58 708.94,394.48 683.5,376 658.06,394.48 
				667.77,364.58 642.33,346.09 673.78,346.09 			"/>
			<polygon class="st1" points="572.81,189.84 599.5,271.99 685.88,271.99 616,322.76 642.69,404.9 572.81,354.14 502.93,404.9 
				529.62,322.76 459.75,271.99 546.12,271.99 			"/>
			<g>
				<g>
					<g>
						<path class="st0" d="M581.96,314.33c1.55-0.77,3.18-0.62,4.76,0.76c2.16,1.9,2.93,4.25,2.32,7c-0.96,4.36-4.7,7.57-9.21,8.04
							c-8.79,0.9-14.62-4.84-16.01-12.75c-1.09-6.2-0.03-12.34,1.04-18.47c0.75-4.33,1.06-8.75,1.44-13.13
							c0.11-1.25-0.12-2.56-0.36-3.81c-0.62-3.23,1.39-6.23,4.55-6.67c3.23-0.45,6.09,1.65,5.78,5.05
							c-0.45,5.02-1.41,10.03-2.56,14.95c-1.62,6.91-4.38,13.56-4.08,20.86c0.24,5.79,3.36,9.29,9.11,9.94
							c4.74,0.53,8.69-4.18,6.93-8.6C585.17,316.21,583.33,315.44,581.96,314.33z"/>
						<path class="st0" d="M570.97,335.24c-8.34,4.6-22.01,2.56-27.9-3.63c-5.88-6.19-5.01-15.93,1.98-19.57
							c4.67-2.43,10.02-2.27,12.04,4.59c-0.44-0.59-0.81-1.24-1.33-1.75c-3.43-3.41-8.5-2.47-10.52,1.93
							c-1.96,4.27-1.05,8.85,2.84,12.29c5.82,5.16,12.59,7.61,20.45,6.36C569.07,335.37,569.62,335.36,570.97,335.24z"/>
						<path class="st0" d="M562.91,282.98c-1.07-0.58-1.89-1.18-2.8-1.5c-2.45-0.88-4.88-1.18-7.01,0.84
							c-2.17,2.07-2.3,4.64-1.29,7.17c0.63,1.59,1.84,2.96,2.86,4.38c1.34,1.88,2.86,3.65,4.1,5.59c1.14,1.8,1.27,3.74-0.37,6.09
							c-0.14-4.54-3.42-6.23-6.06-8.44c-1.48-1.24-3.03-2.44-4.27-3.89c-3.84-4.48-3.07-10.54,1.63-13.9
							C554.26,276.06,559.47,277.43,562.91,282.98z"/>
						<path class="st0" d="M578.44,275.31c-5.37-3.7-10.35-3.32-15.07,0.82c0.06-2.63,2.82-5.22,6.14-5.89
							C573.51,269.44,576.63,271.13,578.44,275.31z"/>
						<path class="st0" d="M566.53,268.97c2.24-2.76,4.99-2.99,8.06-0.51C572.04,268.62,569.22,268.8,566.53,268.97z"/>
					</g>
					<path class="st0" d="M580.39,280.65c0,0,8.9-4.04,10.34,4.68c1.44,8.72-14.75,5.15-14.66,20.73c0,0,2.88-7.7,8.02-8.58
						c5.15-0.88,13.26-5.15,11.64-13.4C594.12,275.83,583.63,275.41,580.39,280.65z"/>
					<path class="st0" d="M589.17,307.4c0,0,13.27-6.13,16.89,8.94c3.56,14.8-18.99,17.8-26.04,24.5c0,0-3.91,3.07-4.75,6.28
						c0,0-3.14-7.61,14.17-15.99c17.31-8.38,9.63-18.5,9.22-18.92C598.24,311.79,595.17,308.23,589.17,307.4z"/>
				</g>
			</g>
		</g>
	</g>
</g>
</svg>
