<?xml version="1.0" encoding="utf-8"?>
<!-- Generator: Adobe Illustrator 24.0.1, SVG Export Plug-In . SVG Version: 6.00 Build 0)  -->
<svg version="1.1" id="Layer_1" xmlns="http://www.w3.org/2000/svg" xmlns:xlink="http://www.w3.org/1999/xlink" x="0px" y="0px"
	 viewBox="0 0 144.87 52" style="enable-background:new 0 0 144.87 52;" xml:space="preserve">
<style type="text/css">
	.st0{fill:#203E78;}
	.st1{fill:#FDD300;}
</style>
<g>
	<g>
		<g>
			<g>
				<g>
					<path class="st0" d="M6.55,25.96c0-0.37,0.06-0.73,0.1-1.09c0.04-0.34,0.09-0.68,0.13-1.01c0.25-1.93,0.6-3.84,1.22-5.69
						c0.56-1.65,1.32-3.21,2.27-4.67c1.84-2.83,4.29-4.97,7.36-6.39c1.52-0.7,3.11-1.1,4.74-1.43c1.72-0.35,3.44-0.31,5.15-0.23
						c0.9,0.04,1.79,0.29,2.67,0.5c2.79,0.66,5.29,1.93,7.56,3.66c2.29,1.75,4.05,3.92,5.15,6.59c0.68,1.65,1.08,3.38,1.18,5.17
						c0.1,1.91-0.04,3.81-0.45,5.68c-0.37,1.67-0.89,3.3-1.59,4.86c-0.39,0.86-0.83,1.7-1.25,2.55c-0.13,0.27-0.23,0.27-0.43,0.07
						c-0.65-0.64-1.29-1.28-1.95-1.9c-0.22-0.21-0.24-0.36-0.06-0.62c0.76-1.11,1.21-2.36,1.53-3.66c0.42-1.7,0.59-3.42,0.51-5.17
						c-0.13-3.16-0.93-6.12-2.84-8.7c-1.58-2.13-3.69-3.52-6.22-4.31c-1.97-0.62-4-0.81-6.05-0.76c-2.3,0.06-4.53,0.46-6.67,1.33
						c-2.78,1.14-5.1,2.9-7,5.21c-1.32,1.61-2.39,3.37-3.25,5.27c-0.6,1.32-1.09,2.68-1.47,4.08c-0.04,0.13-0.07,0.22-0.12,0.4
						c-0.03,0.11-0.13,0.41-0.2,0.53C6.55,26.09,6.55,26.05,6.55,25.96z"/>
					<path class="st1" d="M19.82,42.5c-0.08,0.07-0.15,0.19-0.25,0.2c-1.3,0.23-2.6,0.48-3.91,0.67c-1.4,0.2-2.8,0.34-4.2,0.51
						c-0.68,0.08-0.69,0.05-0.52-0.59c0.43-1.59,0.84-3.18,1.27-4.78c0.37-1.38,0.74-2.76,1.11-4.14c0.24-0.9,0.48-1.79,0.72-2.69
						c0.09-0.34,0.19-0.39,0.53-0.26c0.91,0.33,1.7,0.86,2.5,1.39c0.15,0.1,0.3,0.21,0.48,0.32c0.07,0.05,0.1,0.13,0.07,0.21
						c-0.03,0.1-0.08,0.22-0.11,0.27c-0.22,0.43-0.55,0.22-0.84,0.1c-0.34-0.14-0.66-0.27-1.01-0.4c-0.2-0.07-0.29-0.02-0.34,0.18
						c-0.34,1.42-0.69,2.84-1.03,4.26c-0.27,1.13-0.55,2.26-0.82,3.39c-0.04,0.15-0.06,0.3-0.1,0.47c0.09,0.01,0.15,0.03,0.2,0.02
						c1.14-0.27,2.28-0.11,3.41,0.1c0.87,0.16,1.73,0.39,2.59,0.6C19.68,42.37,19.75,42.45,19.82,42.5z"/>
					<path class="st1" d="M30.14,20.35c0.02,0.82-0.33,1.51-0.79,2.16c-0.8,1.12-1.84,1.97-3,2.69c-0.67,0.42-1.3,0.87-1.67,1.6
						c-0.11,0.22-0.18,0.48-0.22,0.73c-0.05,0.27,0.05,0.33,0.3,0.23c0.47-0.17,0.94-0.37,1.42-0.51c0.32-0.09,0.66-0.15,0.99-0.15
						c0.58-0.01,0.93,0.37,0.97,0.94c0.04,0.7-0.18,1.34-0.41,1.99c-0.12,0.34-0.27,0.68-0.42,1.01c0,0,0,0,0,0
						c-0.04,0.08-1.46,2.62-2.29,3.52c-0.02,0.03-0.04,0.05-0.06,0.08c0,0,0,0,0,0c-0.39,0.4-0.78,0.78-1.18,1.17
						c-0.1,0.09-0.17,0.2-0.28,0.27c-0.08,0.11-0.27,0.25-0.3,0.22c0.02-0.07,0.2-0.47,0.24-0.53c0.7-1.1,1.29-2.26,1.68-3.51
						c0.18-0.56,0.3-1.13,0.22-1.72c-0.11-0.78-0.63-1.07-1.31-0.68c-0.61,0.35-1.23,0.74-1.73,1.23c-1.67,1.63-3.31,3.31-4.93,4.99
						c-0.68,0.7-1.3,1.46-1.95,2.18c-0.07,0.07-0.16,0.12-0.25,0.17c-0.03-0.02-0.06-0.05-0.09-0.07c0.83-1.55,1.63-3.11,2.46-4.66
						l0.21-0.45c0.12-0.23,0.22-0.42,0.32-0.65c0.6-1.38,1.14-2.79,1.64-4.21c0.21-0.59,0.3-1.23,0.37-1.85
						c0.06-0.6-0.21-0.87-0.81-0.8c-0.53,0.06-1.05,0.23-1.57,0.39c-0.47,0.14-0.87,0.47-1.39,0.45c-0.09,0-0.18-0.03-0.28-0.05
						c0.02-0.09,0.02-0.19,0.06-0.27c0.44-0.76,0.95-1.48,1.78-1.85c0.44-0.2,0.91-0.35,1.38-0.41c1.1-0.13,2.2-0.22,3.3-0.28
						c2.06-0.11,3.88-0.85,5.52-2.06c0.6-0.44,1.14-0.97,1.71-1.46c0.08-0.06,0.18-0.1,0.27-0.14
						C30.08,20.16,30.14,20.25,30.14,20.35z"/>
					<path class="st1" d="M25.81,33.9c0,0,1.16-1.88,1.57-2.55c0.03-0.04,0.08-0.05,0.13-0.05l0.64,0c0.18,0,0.29,0.07,0.34,0.26
						c0.32,1.14,0.65,2.28,0.98,3.41c0.37,1.3,0.74,2.6,1.11,3.9c0.36,1.27,0.72,2.54,1.08,3.81c0.06,0.2,0.12,0.4,0.18,0.6
						c0.07,0.27-0.01,0.33-0.28,0.28c-0.84-0.15-1.68-0.35-2.53-0.43c-1.6-0.15-3.19-0.05-4.78,0.2c-2.03,0.33-3.97,0.93-5.85,1.76
						c-0.61,0.27-1.2,0.59-1.8,0.89c-0.08,0.04-0.16,0.07-0.24,0.1c-0.03-0.02-0.05-0.05-0.08-0.07c0.06-0.1,0.11-0.21,0.19-0.29
						c0.91-0.92,1.98-1.63,3.15-2.18c1.79-0.84,3.66-1.41,5.61-1.73c1.14-0.18,2.28-0.32,3.43-0.46c0.23-0.03,0.28-0.11,0.24-0.33
						c-0.37-1.84-0.73-3.68-1.09-5.52c-0.12-0.61-0.24-1.22-0.36-1.83c-0.04-0.2-0.1-0.24-0.35-0.16c-0.34,0.1-0.61,0.18-0.92,0.27
						L25.81,33.9z"/>
					<path class="st0" d="M20.86,44.92c0.09-0.07,0.16-0.16,0.26-0.2c1.69-0.71,3.46-0.99,5.28-1.04c1.95-0.05,3.89,0.1,5.8,0.45
						c0.05,0.01,0.1,0,0.19,0c-0.02-0.11-0.02-0.2-0.04-0.28c-0.63-2.22-1.25-4.44-1.88-6.66c-0.27-0.96-0.54-1.92-0.81-2.88
						c-0.06-0.23,0.01-0.31,0.23-0.24c0.36,0.11,0.71,0.24,1.06,0.39c0.09,0.04,0.18,0.16,0.22,0.26c0.57,1.49,1.15,2.98,1.7,4.48
						c0.39,1.05,0.76,2.11,1.1,3.19c0.33,1.02,0.6,2.06,0.9,3.1c0.07,0.23,0.15,0.45,0.19,0.68c0.05,0.32-0.04,0.39-0.35,0.34
						c-1.88-0.33-3.75-0.69-5.63-0.98c-2.04-0.32-4.09-0.54-6.16-0.56c-0.61-0.01-1.22,0.06-1.83,0.09c-0.06,0-0.13-0.01-0.19-0.02
						C20.89,44.98,20.87,44.95,20.86,44.92z"/>
					<path class="st0" d="M10.12,44.33c0.51-0.03,0.96-0.04,1.4-0.09c1.43-0.13,2.87-0.27,4.3-0.41c0.07-0.01,0.14,0.04,0.21,0.06
						c-0.04,0.07-0.07,0.17-0.14,0.2c-0.65,0.34-1.29,0.69-1.95,0.98c-1.08,0.48-2.25,0.65-3.41,0.84c-0.92,0.15-1.85,0.3-2.72,0.68
						c-0.06,0.03-0.16,0.02-0.22-0.01c-0.02-0.01-0.03-0.12-0.01-0.18c0.3-0.95,0.62-1.89,0.92-2.84c0.54-1.69,1.08-3.38,1.61-5.07
						c0.37-1.16,0.73-2.31,1.08-3.47c0.07-0.22,0.19-0.37,0.42-0.46c0.37-0.14,0.73-0.3,1.1-0.44c0.08-0.03,0.19-0.04,0.25-0.01
						c0.04,0.03,0.04,0.16,0.02,0.23c-0.67,2.35-1.35,4.7-2.03,7.05C10.68,42.36,10.41,43.3,10.12,44.33z"/>
					<path class="st1" d="M22.87,19.74c0.61,0,1.19,0.21,1.63,0.69c0.62,0.68,0.56,1.54-0.14,2.14c-0.94,0.81-2.43,0.72-3.25-0.21
						c-0.47-0.53-0.48-1.3-0.02-1.84C21.55,19.99,22.14,19.74,22.87,19.74z"/>
				</g>
				<polygon class="st1" points="22.78,14.9 23.28,16.45 24.91,16.45 23.59,17.4 24.09,18.95 22.78,17.99 21.46,18.95 21.96,17.4 
					20.65,16.45 22.28,16.45 				"/>
				<polygon class="st1" points="34.82,16.5 35.32,18.04 36.95,18.04 35.63,19 36.13,20.54 34.82,19.59 33.5,20.54 34,19 
					32.69,18.04 34.31,18.04 				"/>
				<polygon class="st1" points="29.09,9.96 30.47,14.21 34.94,14.21 31.33,16.84 32.71,21.08 29.09,18.46 25.48,21.08 26.86,16.84 
					23.25,14.21 27.71,14.21 				"/>
				<g>
					<g>
						<g>
							<path class="st0" d="M29.57,16.4c0.08-0.04,0.16-0.03,0.25,0.04c0.11,0.1,0.15,0.22,0.12,0.36
								c-0.05,0.23-0.24,0.39-0.48,0.42c-0.45,0.05-0.76-0.25-0.83-0.66c-0.06-0.32,0-0.64,0.05-0.96c0.04-0.22,0.05-0.45,0.07-0.68
								c0.01-0.06-0.01-0.13-0.02-0.2c-0.03-0.17,0.07-0.32,0.24-0.34c0.17-0.02,0.31,0.09,0.3,0.26c-0.02,0.26-0.07,0.52-0.13,0.77
								c-0.08,0.36-0.23,0.7-0.21,1.08c0.01,0.3,0.17,0.48,0.47,0.51c0.24,0.03,0.45-0.22,0.36-0.44
								C29.73,16.5,29.64,16.46,29.57,16.4z"/>
							<path class="st0" d="M29,17.48c-0.43,0.24-1.14,0.13-1.44-0.19c-0.3-0.32-0.26-0.82,0.1-1.01c0.24-0.13,0.52-0.12,0.62,0.24
								c-0.02-0.03-0.04-0.06-0.07-0.09c-0.18-0.18-0.44-0.13-0.54,0.1c-0.1,0.22-0.05,0.46,0.15,0.64c0.3,0.27,0.65,0.39,1.06,0.33
								C28.9,17.49,28.93,17.49,29,17.48z"/>
							<path class="st0" d="M28.58,14.78c-0.06-0.03-0.1-0.06-0.14-0.08c-0.13-0.05-0.25-0.06-0.36,0.04
								c-0.11,0.11-0.12,0.24-0.07,0.37c0.03,0.08,0.1,0.15,0.15,0.23c0.07,0.1,0.15,0.19,0.21,0.29c0.06,0.09,0.07,0.19-0.02,0.32
								c-0.01-0.23-0.18-0.32-0.31-0.44c-0.08-0.06-0.16-0.13-0.22-0.2c-0.2-0.23-0.16-0.55,0.08-0.72
								C28.14,14.42,28.4,14.49,28.58,14.78z"/>
							<path class="st0" d="M29.39,14.38c-0.28-0.19-0.54-0.17-0.78,0.04c0-0.14,0.15-0.27,0.32-0.3
								C29.13,14.08,29.29,14.17,29.39,14.38z"/>
							<path class="st0" d="M28.77,14.06c0.12-0.14,0.26-0.15,0.42-0.03C29.05,14.04,28.91,14.05,28.77,14.06z"/>
						</g>
						<path class="st0" d="M29.49,14.66c0,0,0.46-0.21,0.53,0.24c0.07,0.45-0.76,0.27-0.76,1.07c0,0,0.15-0.4,0.41-0.44
							c0.27-0.05,0.69-0.27,0.6-0.69S29.65,14.39,29.49,14.66z"/>
						<path class="st0" d="M29.94,16.04c0,0,0.69-0.32,0.87,0.46c0.18,0.77-0.98,0.92-1.35,1.27c0,0-0.2,0.16-0.25,0.32
							c0,0-0.16-0.39,0.73-0.83c0.9-0.43,0.5-0.96,0.48-0.98S30.25,16.09,29.94,16.04z"/>
					</g>
				</g>
			</g>
		</g>
	</g>
	<g>
		<g>
			<g>
				<path class="st0" d="M55.08,27.9h-1.65c-0.26,0-0.46-0.04-0.6-0.13c-0.14-0.09-0.21-0.21-0.21-0.37c0-0.16,0.01-0.29,0.02-0.41
					c0.01-0.12,0.03-0.2,0.06-0.26l1.22-3.14h5.61l1.62,4.31h-2.24v0.91h8.94V27.9h-1.63L59.28,10h-1.11l-6.33,16.49
					c-0.21,0.54-0.42,0.91-0.62,1.11c-0.2,0.2-0.46,0.3-0.76,0.3h-1.14v0.91h5.76V27.9z M56.79,16.22l2.44,6.47h-5L56.79,16.22z"/>
				<path class="st0" d="M76.52,28.61c0.84-0.14,1.5-0.32,1.96-0.54c0.61-0.29,1.18-0.72,1.71-1.3c0.53-0.58,0.93-1.23,1.2-1.95
					c0.27-0.72,0.4-1.54,0.4-2.45c0-1.31-0.26-2.44-0.79-3.37c-0.53-0.94-1.24-1.64-2.13-2.12c-0.89-0.48-2.09-0.72-3.59-0.72h-6.63
					v1.75h0.44c0.38,0,0.63,0.03,0.75,0.09c0.12,0.06,0.2,0.14,0.26,0.25c0.05,0.11,0.08,0.36,0.08,0.75v6.91
					c0,0.39-0.02,0.64-0.07,0.75c-0.07,0.14-0.17,0.25-0.28,0.31c-0.12,0.06-0.36,0.09-0.73,0.09h-0.44v1.75h5.84
					C75,28.82,75.67,28.75,76.52,28.61z M73.54,26.75c-0.09-0.03-0.16-0.1-0.21-0.19c-0.03-0.06-0.05-0.22-0.05-0.49v-7.88h1.4
					c0.89,0,1.57,0.14,2.05,0.42c0.48,0.28,0.88,0.76,1.2,1.44c0.32,0.68,0.48,1.48,0.48,2.4c0,0.93-0.17,1.74-0.52,2.41
					c-0.34,0.68-0.8,1.17-1.36,1.47c-0.56,0.31-1.33,0.46-2.33,0.46C73.86,26.79,73.63,26.78,73.54,26.75z"/>
				<path class="st0" d="M87.36,27.07c-0.47,0-0.75-0.01-0.85-0.04c-0.16-0.04-0.27-0.09-0.34-0.17c-0.07-0.08-0.1-0.17-0.1-0.26
					c0-0.08,0.05-0.26,0.14-0.54l0.47-1.28h3.85l0.38,1.15c0.11,0.34,0.17,0.56,0.17,0.67c0,0.13-0.07,0.23-0.2,0.32
					c-0.13,0.09-0.37,0.13-0.7,0.13l-0.36,0.01v1.75h5.98v-1.75c-0.43,0.01-0.72-0.05-0.88-0.17c-0.16-0.12-0.34-0.44-0.55-0.96
					l-3.8-9.77h-2.84l-3.91,9.97c-0.12,0.3-0.22,0.5-0.31,0.61c-0.09,0.11-0.21,0.19-0.36,0.24c-0.15,0.05-0.37,0.08-0.69,0.08v1.75
					h4.9V27.07z M88.64,19.5l1.22,3.47h-2.51L88.64,19.5z"/>
				<path class="st0" d="M102.68,27.07h-0.58c-0.32,0-0.53-0.03-0.64-0.09c-0.11-0.06-0.18-0.14-0.23-0.26
					c-0.05-0.12-0.07-0.39-0.07-0.83v-2.52h1.05l4.06,5.45h4.05v-1.75h-0.54c-0.25,0-0.44-0.02-0.58-0.06
					c-0.14-0.04-0.28-0.11-0.42-0.21c-0.14-0.1-0.29-0.25-0.46-0.46l-0.11-0.14l-2.6-3.03c0.94-0.18,1.75-0.57,2.43-1.17
					c0.69-0.6,1.03-1.37,1.03-2.33c0-0.59-0.13-1.12-0.4-1.6c-0.27-0.47-0.64-0.86-1.12-1.17c-0.48-0.31-1.02-0.51-1.62-0.6
					c-0.6-0.09-1.14-0.14-1.65-0.14h-7.8v1.8h0.47l0.26-0.01c0.19,0,0.36,0.03,0.5,0.1c0.1,0.04,0.18,0.11,0.22,0.23
					s0.07,0.32,0.07,0.59v7.12c0,0.38-0.02,0.61-0.05,0.68c-0.06,0.13-0.15,0.22-0.28,0.29c-0.12,0.06-0.34,0.1-0.63,0.1h-0.57v1.75
					h6.19V27.07z M101.15,18.24h2.09c0.72,0,1.24,0.06,1.56,0.17c0.32,0.11,0.56,0.29,0.73,0.53c0.17,0.24,0.26,0.52,0.26,0.86
					c0,0.36-0.09,0.67-0.28,0.92c-0.18,0.25-0.46,0.45-0.83,0.58c-0.37,0.14-0.92,0.2-1.65,0.2h-1.88V18.24z"/>
				<path class="st0" d="M118.4,26.83c-0.3,0.11-0.68,0.17-1.13,0.17c-1.01,0-1.94-0.33-2.78-1c-0.84-0.67-1.46-1.5-1.86-2.5
					l-1.7,0.41l0.9,4.91h1.35l0.4-0.91c0.61,0.4,1.2,0.69,1.76,0.87c0.56,0.17,1.18,0.26,1.85,0.26c1.44,0,2.65-0.42,3.63-1.25
					c0.87-0.76,1.31-1.68,1.31-2.78c0-0.86-0.28-1.61-0.85-2.26c-0.57-0.64-1.54-1.16-2.88-1.54l-2.43-0.71
					c-0.71-0.2-1.2-0.43-1.47-0.68c-0.27-0.25-0.41-0.53-0.41-0.83c0-0.26,0.15-0.5,0.45-0.71c0.3-0.21,0.71-0.32,1.23-0.32
					c0.8,0,1.56,0.24,2.27,0.7c0.71,0.47,1.35,1.21,1.91,2.22l1.7-0.48l-1.09-4.24h-1.3l-0.35,0.63c-0.88-0.57-1.87-0.85-2.97-0.85
					c-0.91,0-1.73,0.18-2.48,0.53c-0.75,0.35-1.31,0.81-1.68,1.37c-0.37,0.57-0.56,1.18-0.56,1.85c0,0.47,0.1,0.92,0.29,1.35
					c0.19,0.43,0.44,0.78,0.73,1.05c0.29,0.27,0.71,0.53,1.26,0.78c0.55,0.25,0.98,0.42,1.3,0.51l2.11,0.62
					c0.89,0.25,1.51,0.51,1.87,0.77c0.35,0.26,0.53,0.57,0.53,0.93c0,0.22-0.08,0.43-0.23,0.63
					C118.92,26.56,118.69,26.72,118.4,26.83z"/>
				<path class="st0" d="M129.39,27.07h-0.42c-0.38,0-0.64-0.02-0.77-0.07c-0.13-0.05-0.22-0.15-0.28-0.3
					c-0.04-0.1-0.05-0.37-0.05-0.79v-2.67h4.61v2.67c0,0.42-0.03,0.69-0.08,0.81c-0.05,0.11-0.14,0.2-0.28,0.26
					c-0.14,0.06-0.39,0.09-0.78,0.09h-0.41v1.75h6.19v-1.75h-0.36c-0.42,0-0.69-0.03-0.81-0.08c-0.12-0.05-0.21-0.14-0.26-0.26
					c-0.06-0.12-0.09-0.4-0.09-0.82v-6.86c0-0.42,0.02-0.68,0.07-0.79c0.05-0.11,0.13-0.2,0.24-0.25c0.11-0.06,0.35-0.09,0.7-0.09
					h0.52v-1.75h-6.19v1.75h0.48c0.39,0,0.65,0.03,0.76,0.08c0.11,0.05,0.2,0.15,0.24,0.3c0.04,0.1,0.05,0.3,0.05,0.59v2.37h-4.61
					v-2.2c0-0.39,0.02-0.65,0.07-0.77s0.13-0.21,0.24-0.27c0.11-0.06,0.33-0.1,0.64-0.1h0.57v-1.75h-6.18v1.75h0.57
					c0.32,0,0.53,0.03,0.64,0.09c0.11,0.06,0.19,0.16,0.24,0.29c0.05,0.13,0.08,0.41,0.08,0.84v6.87c0,0.37-0.03,0.61-0.08,0.72
					c-0.05,0.11-0.15,0.19-0.29,0.25c-0.14,0.06-0.39,0.09-0.74,0.09h-0.42v1.75h6.18V27.07z"/>
				<polygon class="st0" points="67.97,31.24 49.26,31.24 49.26,32.57 67.97,32.57 137.79,32.57 137.79,31.24 				"/>
			</g>
			<g>
				<path class="st0" d="M51.57,39.69c0,0.25-0.06,0.45-0.17,0.58c-0.11,0.13-0.28,0.2-0.48,0.2c-0.23,0-0.4-0.07-0.52-0.22
					s-0.18-0.37-0.18-0.66h-1.72c0,0.77,0.23,1.36,0.68,1.78c0.45,0.42,1.05,0.63,1.8,0.63c0.71,0,1.28-0.2,1.7-0.6
					c0.42-0.4,0.63-0.97,0.63-1.7v-4.76h-1.73V39.69z"/>
				<path class="st0" d="M59.37,39.12c0,0.42-0.11,0.74-0.32,0.97c-0.22,0.23-0.52,0.34-0.93,0.34c-0.4,0-0.71-0.11-0.92-0.34
					c-0.21-0.23-0.31-0.55-0.31-0.97v-4.18h-1.73v4.17c0,0.62,0.13,1.15,0.38,1.59c0.26,0.44,0.6,0.76,1.04,0.98
					c0.44,0.22,0.94,0.32,1.5,0.32c0.56,0,1.06-0.11,1.52-0.33c0.45-0.22,0.82-0.54,1.08-0.98c0.27-0.43,0.4-0.96,0.4-1.58v-4.17
					h-1.73V39.12z"/>
				<polygon class="st0" points="67.42,39.27 64.54,34.93 62.81,34.93 62.81,41.93 64.54,41.93 64.54,37.61 67.42,41.93 
					69.15,41.93 69.15,34.93 67.42,34.93 				"/>
				<rect x="70.91" y="34.93" class="st0" width="1.73" height="6.99"/>
				<path class="st0" d="M79.57,35.29c-0.56-0.31-1.17-0.46-1.83-0.46s-1.28,0.15-1.83,0.46c-0.56,0.31-1,0.73-1.32,1.28
					c-0.33,0.54-0.49,1.16-0.49,1.84c0,0.68,0.16,1.3,0.49,1.85c0.33,0.55,0.77,0.97,1.32,1.28c0.56,0.31,1.17,0.46,1.83,0.46
					s1.28-0.15,1.83-0.46c0.55-0.31,0.99-0.73,1.31-1.28c0.32-0.55,0.48-1.16,0.48-1.85c0-0.68-0.16-1.3-0.48-1.84
					C80.56,36.02,80.13,35.6,79.57,35.29z M79.1,39.88c-0.34,0.37-0.79,0.56-1.36,0.56c-0.57,0-1.03-0.18-1.37-0.55
					c-0.34-0.37-0.51-0.86-0.51-1.48c0-0.62,0.17-1.12,0.51-1.48c0.34-0.36,0.8-0.55,1.37-0.55c0.56,0,1.02,0.18,1.36,0.55
					c0.34,0.37,0.51,0.86,0.51,1.48C79.61,39.02,79.44,39.51,79.1,39.88z"/>
				<path class="st0" d="M87.93,38.38c0.27-0.37,0.4-0.78,0.4-1.25c0-0.41-0.1-0.79-0.29-1.12c-0.2-0.34-0.49-0.6-0.88-0.79
					c-0.39-0.19-0.87-0.29-1.43-0.29h-2.9v6.99h1.73v-2.64h0.41l1.47,2.64h1.95l-1.64-2.77C87.27,39,87.66,38.74,87.93,38.38z
					 M86.33,37.85c-0.16,0.15-0.4,0.23-0.71,0.23h-1.07v-1.73h1.07c0.32,0,0.55,0.08,0.71,0.23c0.16,0.15,0.24,0.36,0.24,0.63
					C86.57,37.48,86.49,37.7,86.33,37.85z"/>
				<path class="st0" d="M95.81,36.41c0.33,0,0.62,0.08,0.88,0.23c0.26,0.15,0.46,0.38,0.6,0.67h1.9c-0.2-0.76-0.6-1.35-1.2-1.79
					c-0.6-0.44-1.32-0.66-2.16-0.66c-0.69,0-1.3,0.15-1.84,0.45c-0.54,0.3-0.96,0.72-1.27,1.27c-0.3,0.54-0.45,1.16-0.45,1.85
					c0,0.69,0.15,1.3,0.45,1.84c0.3,0.54,0.72,0.96,1.27,1.26c0.54,0.3,1.16,0.45,1.84,0.45c0.84,0,1.56-0.22,2.16-0.65
					c0.6-0.43,1-1.03,1.2-1.79h-1.9c-0.14,0.29-0.34,0.51-0.6,0.67c-0.26,0.15-0.55,0.23-0.88,0.23c-0.53,0-0.96-0.18-1.29-0.55
					c-0.33-0.37-0.49-0.85-0.49-1.46c0-0.61,0.16-1.1,0.49-1.46C94.84,36.59,95.27,36.41,95.81,36.41z"/>
				<path class="st0" d="M105.93,35.29c-0.56-0.31-1.17-0.46-1.83-0.46c-0.67,0-1.28,0.15-1.83,0.46c-0.56,0.31-1,0.73-1.32,1.28
					c-0.33,0.54-0.49,1.16-0.49,1.84c0,0.68,0.16,1.3,0.49,1.85c0.33,0.55,0.77,0.97,1.32,1.28c0.56,0.31,1.17,0.46,1.83,0.46
					c0.67,0,1.28-0.15,1.83-0.46c0.55-0.31,0.99-0.73,1.31-1.28c0.32-0.55,0.48-1.16,0.48-1.85c0-0.68-0.16-1.3-0.48-1.84
					C106.93,36.02,106.49,35.6,105.93,35.29z M105.46,39.88c-0.34,0.37-0.79,0.56-1.36,0.56c-0.57,0-1.03-0.18-1.37-0.55
					c-0.34-0.37-0.51-0.86-0.51-1.48c0-0.62,0.17-1.12,0.51-1.48c0.34-0.36,0.8-0.55,1.37-0.55c0.57,0,1.02,0.18,1.36,0.55
					c0.34,0.37,0.51,0.86,0.51,1.48C105.97,39.02,105.8,39.51,105.46,39.88z"/>
				<polygon class="st0" points="110.92,34.93 109.19,34.93 109.19,41.93 113.18,41.93 113.18,40.61 110.92,40.61 				"/>
				<polygon class="st0" points="116.23,34.93 114.51,34.93 114.51,41.93 118.5,41.93 118.5,40.61 116.23,40.61 				"/>
				<polygon class="st0" points="119.83,41.93 124.17,41.93 124.17,40.56 121.55,40.56 121.55,39.03 123.87,39.03 123.87,37.71 
					121.55,37.71 121.55,36.3 124.17,36.3 124.17,34.93 119.83,34.93 				"/>
				<path class="st0" d="M128.77,39.24h2.19c-0.13,0.4-0.35,0.7-0.64,0.92c-0.29,0.21-0.65,0.32-1.07,0.32
					c-0.62,0-1.11-0.18-1.46-0.54c-0.35-0.36-0.53-0.86-0.53-1.51c0-0.6,0.17-1.09,0.5-1.45c0.34-0.36,0.78-0.54,1.34-0.54
					c0.32,0,0.6,0.06,0.84,0.18c0.24,0.12,0.42,0.3,0.55,0.53h1.91c-0.19-0.72-0.57-1.28-1.16-1.68c-0.58-0.4-1.3-0.61-2.14-0.61
					c-0.7,0-1.32,0.15-1.87,0.45c-0.55,0.3-0.97,0.72-1.28,1.27c-0.31,0.54-0.46,1.16-0.46,1.85c0,0.69,0.15,1.3,0.46,1.84
					c0.31,0.54,0.73,0.96,1.28,1.26c0.55,0.3,1.17,0.45,1.87,0.45c0.59,0,1.12-0.11,1.59-0.34c0.47-0.23,0.86-0.52,1.17-0.89
					c0.31-0.37,0.52-0.76,0.65-1.19v-1.58h-3.75V39.24z"/>
				<polygon class="st0" points="138.33,36.3 138.33,34.93 133.99,34.93 133.99,41.93 138.33,41.93 138.33,40.56 135.71,40.56 
					135.71,39.03 138.03,39.03 138.03,37.71 135.71,37.71 135.71,36.3 				"/>
			</g>
		</g>
	</g>
</g>
</svg>
