<svg id="Layer_1" data-name="Layer 1" xmlns="http://www.w3.org/2000/svg" xmlns:xlink="http://www.w3.org/1999/xlink" viewBox="0 0 134 134"><defs><style>.cls-1{fill:#bdf3ff;}.cls-2{clip-path:url(#clip-path);}.cls-3{fill:#cbcbcb;}.cls-4{fill:#bdbdbd;}.cls-5{fill:#0f2b43;}.cls-6{fill:#204297;}</style><clipPath id="clip-path"><circle class="cls-1" cx="67" cy="67" r="66"/></clipPath></defs><title>Male Avatar</title><circle class="cls-1" cx="67" cy="67" r="66"/><g class="cls-2"><path class="cls-3" d="M79.46,92.6c3.85-3.49,6.73-8.52,8.59-14.17,1.13,1.55,2.84,0,3-1.46,0-2.21,4.1-12.26-.55-11.87a.52.52,0,0,0-.06.12c3.16-42.74-50.17-42.68-47,0l-.06-.14c-4.66-.38-.54,9.64-.56,11.87.21,1.45,1.93,3,3.06,1.45,1.86,5.66,4.74,10.69,8.6,14.18a19.66,19.66,0,0,0,24.91,0Z"/><path class="cls-4" d="M78.94,96.29a17.83,17.83,0,0,1,.43-3.61l.09-.08a19.66,19.66,0,0,1-24.91,0l.08.08a17.83,17.83,0,0,1,.43,3.61,19.59,19.59,0,0,0,23.88,0Z"/><path d="M109.16,109.37h0S109.17,109.38,109.16,109.37Z"/><path d="M109,109.28l.15.09S109.11,109.33,109,109.28Z"/><path class="cls-5" d="M104.72,98.72c2.62-6.64,4.44-17.23-2.2-24.33-5.21-5.57-2.69-7.11-2.34-17.07S90,23.35,64.07,30.47C43.52,25.16,33.56,47.36,33.9,57.32s2.87,11.5-2.34,17.07c-6.64,7.09-4.82,17.68-2.2,24.32,2.4,6.06-3.28,9.93-4.29,10.56a59.18,59.18,0,0,1,5.74-1.94c6.26-2,18-1.76,18-1.76,8.58-.29,5.79-13,5.79-13A34.86,34.86,0,0,1,46,78.42c-1.35,1.45-3-.31-3.05-1.45s-1-4.79-1.62-8.53,2.17-3.35,2.17-3.35,1.21,2.71,4.92-10.6S64.07,43.21,64.07,43.21s13.57-1.85,17.27,11.46S90.55,65.1,90.55,65.1s2.74-.39,2.17,3.35S91.18,75.82,91.1,77s-1.7,2.91-3,1.46c0,0-2.54,8.41-8.8,14.33,0,0-2.28,12.91,6,12.82,0,0,11.77-.19,18,1.76a55.87,55.87,0,0,1,5.74,1.94C108,108.65,102.32,104.78,104.72,98.72Z"/><path d="M24.92,109.38v0A0,0,0,0,0,24.92,109.38Z"/><path d="M25.07,109.27a.7.7,0,0,0-.15.09Z"/><path class="cls-3" d="M106.26,108.18c-7.06-2.53-16.17-2.63-21-2.6-4.7,0-6.4-4.63-6.3-9.29a19.59,19.59,0,0,1-23.88,0c.1,4.66-1.6,9.29-6.3,9.29s-13.64.06-20.65,2.46A78.52,78.52,0,0,0,106.26,108.18Z"/><path class="cls-6" d="M19.43,114.15A81.22,81.22,0,0,0,11.59,133H122.41a81.22,81.22,0,0,0-7.84-18.85c-1.71-2.81-4.75-4.7-8.31-6A78.52,78.52,0,0,1,28.11,108C24.39,109.32,21.2,111.24,19.43,114.15Z"/></g></svg>