<svg id="Layer_1" data-name="Layer 1" xmlns="http://www.w3.org/2000/svg" xmlns:xlink="http://www.w3.org/1999/xlink" viewBox="0 0 134 134"><defs><style>.cls-1{fill:#bdf3ff;}.cls-2{clip-path:url(#clip-path);}.cls-3{fill:#cbcbcb;}.cls-4{fill:#204297;}.cls-5{fill:#bdbdbd;}.cls-6{fill:#0f2b43;}</style><clipPath id="clip-path"><circle class="cls-1" cx="67" cy="67" r="66"/></clipPath></defs><title>Male Avatar</title><circle class="cls-1" cx="67" cy="67" r="66"/><g class="cls-2"><path class="cls-3" d="M102.13,107a77.46,77.46,0,0,0-16.89-1.42c-4.7,0-6.4-4.63-6.3-9.29a19.59,19.59,0,0,1-23.88,0c.1,4.66-1.6,9.29-6.3,9.29-4.19,0-11.55,0-18,1.69l36.28,17Z"/><path class="cls-4" d="M114.57,114.15c-2.34-3.85-7.18-6-12.44-7.15L67,124.31l-36.28-17c-4.8,1.22-9.12,3.31-11.29,6.88A81.22,81.22,0,0,0,11.59,133H122.41A81.22,81.22,0,0,0,114.57,114.15Z"/><path class="cls-3" d="M79.46,92.6c3.85-3.49,6.73-8.52,8.59-14.17,1.13,1.55,2.84,0,3-1.46,0-2.21,4.1-12.26-.55-11.87a.52.52,0,0,0-.06.12c3.16-42.74-50.17-42.68-47,0l-.06-.14c-4.66-.38-.54,9.64-.56,11.87.21,1.45,1.93,3,3.06,1.45,1.86,5.66,4.74,10.69,8.6,14.18a19.66,19.66,0,0,0,24.91,0Z"/><path class="cls-5" d="M78.94,96.29a17.83,17.83,0,0,1,.43-3.61l.09-.08a19.66,19.66,0,0,1-24.91,0l.08.08a17.83,17.83,0,0,1,.43,3.61,19.59,19.59,0,0,0,23.88,0Z"/><path class="cls-6" d="M91.28,43.2S93,23.65,65.62,25.84s-34.55,26.4-35.13,47A168.68,168.68,0,0,0,31,93.48a18.26,18.26,0,0,0,15.2,16.39,35.52,35.52,0,0,0,10.52,0s2.29,0-2.21-17.25a27.14,27.14,0,0,1-5.75-7.52h0a136.32,136.32,0,0,0,1.83-23.22c0-16.48,9.48-19.54,17.94-18.81s19.23.55,20.12,26.82l1.8-4.63s2.17-.86,2.28,2.52-1.15,5.77-1.22,6.89-1,5.92-3.49,3.77c0,0-2.51,8.94-8.6,14.18,0,0-4.76,16.08-2.28,17s18.52,4.5,23.48-9.2S102,54,91.28,43.2Z"/></g></svg>