<svg id="Layer_1" data-name="Layer 1" xmlns="http://www.w3.org/2000/svg" xmlns:xlink="http://www.w3.org/1999/xlink" viewBox="0 0 134 134"><defs><style>.cls-1{fill:#bdf3ff;}.cls-2{clip-path:url(#clip-path);}.cls-3{fill:#0f2b43;}.cls-4{fill:#cbcbcb;}.cls-5{fill:#bdbdbd;}.cls-6{fill:#42dbb0;}.cls-7{fill:#21bf8b;}</style><clipPath id="clip-path"><circle class="cls-1" cx="67" cy="67" r="66"/></clipPath></defs><title>Male Avatar</title><circle class="cls-1" cx="67" cy="67" r="66"/><g class="cls-2"><path class="cls-3" d="M89.53,37.56S101.21,42,100.36,60.63c-.81,17.67-5,52.65-5,52.65l-54.11,1.36S27,65.12,37.77,43.36C49.68,19.4,85.94,25.61,89.53,37.56Z"/><path class="cls-4" d="M79.46,92.6c3.85-3.49,6.73-8.52,8.59-14.17,1.13,1.55,2.84,0,3-1.46,0-2.21,4.1-12.26-.55-11.87a.52.52,0,0,0-.06.12c3.16-42.74-50.17-42.68-47,0l-.06-.14c-4.66-.38-.54,9.64-.56,11.87.21,1.45,1.93,3,3.06,1.45,1.86,5.66,4.74,10.69,8.6,14.18a19.66,19.66,0,0,0,24.91,0Z"/><path class="cls-5" d="M78.94,96.29a17.83,17.83,0,0,1,.43-3.61l.09-.08a19.66,19.66,0,0,1-24.91,0l.08.08a17.83,17.83,0,0,1,.43,3.61,19.59,19.59,0,0,0,23.88,0Z"/><path class="cls-4" d="M114.57,114.15c-5.1-8.38-22-8.62-29.33-8.57-4.7,0-6.4-4.63-6.3-9.29a19.59,19.59,0,0,1-23.88,0c.1,4.66-1.6,9.29-6.3,9.29-7.29,0-24.23.19-29.33,8.57A81.22,81.22,0,0,0,11.59,133H122.41A81.22,81.22,0,0,0,114.57,114.15Z"/><path class="cls-3" d="M89.27,69s7.13-18.54-.64-26.58c0,0-2.6-9.72-16.86-11.67S38.18,38,43.44,65.1l2.26,6s4.68-28.94,38.13-26.35C83.83,44.77,89.53,52.16,89.27,69Z"/><path class="cls-6" d="M114.57,114.15c-5.1-8.38-22-8.62-29.34-8.57a5.52,5.52,0,0,1-3.17-.92c-4.9,1.5-10.11,17.69-15.18,17.69s-10-16.2-14.94-17.7a5.48,5.48,0,0,1-3.18.93c-7.3,0-24.24.19-29.34,8.57A81.46,81.46,0,0,0,11.59,133H122.4A81.46,81.46,0,0,0,114.57,114.15Z"/><polygon class="cls-7" points="53.22 103.42 63.25 119.98 63.25 119.98 56.8 126.74 47.18 105.58 53.22 103.42"/><polygon class="cls-7" points="80.69 103.28 70.67 119.84 70.67 119.84 77.11 126.6 86.74 105.44 80.69 103.28"/></g></svg>