<svg id="Layer_1" data-name="Layer 1" xmlns="http://www.w3.org/2000/svg" xmlns:xlink="http://www.w3.org/1999/xlink" viewBox="0 0 134 134"><defs><style>.cls-1{fill:#bdf3ff;}.cls-2{clip-path:url(#clip-path);}.cls-3{fill:#cbcbcb;}.cls-4{fill:#42dbb0;}.cls-5{fill:#bdbdbd;}.cls-6{fill:#0f2b43;}</style><clipPath id="clip-path"><circle class="cls-1" cx="67" cy="67" r="66"/></clipPath></defs><title>Male Avatar</title><circle class="cls-1" cx="67" cy="67" r="66"/><g class="cls-2"><path d="M77.27,91.5s-2.65,21.22,11.34,17.39-4.86-22.54-4.86-22.54Z"/><path class="cls-3" d="M82.07,104.66c-2.31-1.58-3.2-5-3.13-8.37a19.59,19.59,0,0,1-23.88,0c.07,3.4-.81,6.78-3.12,8.36A51.64,51.64,0,0,0,82.07,104.66Z"/><path class="cls-4" d="M114.57,114.15c-5.1-8.38-22-8.62-29.33-8.57a5.5,5.5,0,0,1-3.17-.92,51.64,51.64,0,0,1-30.13,0,5.44,5.44,0,0,1-3.18.93c-7.29,0-24.23.19-29.33,8.57A81.22,81.22,0,0,0,11.59,133H122.41A81.22,81.22,0,0,0,114.57,114.15Z"/><path class="cls-3" d="M79.46,92.6c3.85-3.49,6.73-8.52,8.59-14.17,1.13,1.55,2.84,0,3-1.46,0-2.21,4.1-12.26-.55-11.87a.52.52,0,0,0-.06.12c3.16-42.74-50.17-42.68-47,0l-.06-.14c-4.66-.38-.54,9.64-.56,11.87.21,1.45,1.93,3,3.06,1.45,1.86,5.66,4.74,10.69,8.6,14.18a19.66,19.66,0,0,0,24.91,0Z"/><path class="cls-5" d="M78.94,96.29a17.83,17.83,0,0,1,.43-3.61l.09-.08a19.66,19.66,0,0,1-24.91,0l.08.08a17.83,17.83,0,0,1,.43,3.61,19.59,19.59,0,0,0,23.88,0Z"/><path class="cls-6" d="M49.47,105.54a5.24,5.24,0,0,0,2.75-1.1c1.52-1,2.86-3.39,2.84-8.15a13.2,13.2,0,0,0-.43-3.61C47.65,85.54,46,78.42,46,78.42c-2.37,1.79-4.49-6.64-4.72-10.29-.11-1.75.43-3,2.22-3s5.33,3.29,4-3.46A35.89,35.89,0,0,1,47,54.78C48.28,43,64.7,40.4,64.7,40.4c17.52-1,20.61,6.47,17.52,24.72s.15,22.54,2.65,28.58a32.56,32.56,0,0,1-.17,25.54c-.12.26-.22.52-.33.77a8.59,8.59,0,0,0,9.53,11.66h0a21.89,21.89,0,0,0,14.61-9.92l.14-.22c4.5-7.21-.26-11.2-2.84-16s-2.89-8.77-.57-13,4.46-15-2.54-19.95c-4.4-3.1-4.81-5.15-4.8-20.39,0-15-13.72-29.18-32.68-27.11-13.61,1.48-13.53,9.43-13.53,9.43s-11.78-.06-15,10.65S39.91,61.39,34.28,73,39.16,89.29,38,96.29s.94,9.64.94,9.64Z"/></g></svg>