<svg id="Layer_1" data-name="Layer 1" xmlns="http://www.w3.org/2000/svg" xmlns:xlink="http://www.w3.org/1999/xlink" viewBox="0 0 134 134"><defs><style>.cls-1{fill:#bdf3ff;}.cls-2{clip-path:url(#clip-path);}.cls-3{fill:#cbcbcb;}.cls-4{fill:#bdbdbd;}.cls-5{fill:#0f2b43;}.cls-6{fill:#204297;}.cls-7{fill:#00afd8;}.cls-8{fill:#fff;}</style><clipPath id="clip-path"><circle class="cls-1" cx="67" cy="67" r="66"/></clipPath></defs><title>Male Avatar</title><circle class="cls-1" cx="67" cy="67" r="66"/><g class="cls-2"><path class="cls-3" d="M80.21,90.1c4.09-3.7,7.15-9,9.12-15,1.2,1.65,3,0,3.24-1.54,0-2.35,4.34-13-.59-12.6l-.06.13c3.35-45.34-53.22-45.29-49.84,0a1.15,1.15,0,0,0-.07-.15c-4.93-.4-.57,10.23-.59,12.6.23,1.53,2,3.19,3.24,1.54,2,6,5,11.34,9.13,15a20.85,20.85,0,0,0,26.42,0Z"/><path class="cls-4" d="M79.66,94a20.06,20.06,0,0,1,.46-3.83l.09-.08a20.85,20.85,0,0,1-26.42,0l.09.08A19.29,19.29,0,0,1,54.33,94a20.76,20.76,0,0,0,25.33,0Z"/><path class="cls-3" d="M117.47,113c-5.41-8.89-23.38-9.14-31.12-9.09-5,0-6.79-4.91-6.69-9.86a20.76,20.76,0,0,1-25.33,0c.11,4.95-1.69,9.85-6.68,9.86-7.74-.05-25.71.2-31.12,9.09s-8.31,20-8.31,20H125.78S122.88,121.85,117.47,113Z"/><path class="cls-5" d="M45,71.55l-3-10.41s-1.79-9.37-1.2-14.45-3.19.71-3.19.71-1.89-5.67,1.65-9.21-1-3.07-2.15-2.71,3-5.79,8.65-7.21-1.76-3.42-4.42-.59c0,0,5.24-12,22.72-12.16S87,27,87.26,32.29c0,0,5,1.3,5.43,7.91,0,0-2-1.18-2-.59s3.61,4.89,1,21.4L89.15,72S88,39.49,83.6,38.55C81.19,38,77,38.47,73.65,39a74.38,74.38,0,0,1-8.43.77c-4.27.15-14.63,2.7-17.46,8.13C43.51,56,45,71.55,45,71.55Z"/><path class="cls-6" d="M117.47,113c-5.41-8.89-23.38-9.14-31.12-9.09a5.84,5.84,0,0,1-3.37-1c-5.2,1.59-10.72,18.77-16.11,18.77S56.24,104.52,51,102.92a5.8,5.8,0,0,1-3.38,1c-7.74,0-25.71.2-31.12,9.09s-8.31,20-8.31,20H125.78S122.88,121.89,117.47,113Z"/><polygon class="cls-7" points="66.68 115.91 61.99 123.37 66.68 129.6 71.84 123.37 66.68 115.91"/><polygon class="cls-7" points="60.11 133 66.84 120.65 73.25 133 60.11 133"/><polygon class="cls-8" points="52.39 101.62 66.68 115.91 64.28 119.72 59.43 127.34 42.46 103.97 52.39 101.62"/><polygon class="cls-8" points="81.53 101.47 66.68 115.91 74.03 127.34 91.28 103.96 81.53 101.47"/></g></svg>