<svg id="Layer_1" data-name="Layer 1" xmlns="http://www.w3.org/2000/svg" xmlns:xlink="http://www.w3.org/1999/xlink" viewBox="0 0 134 134"><defs><style>.cls-1{fill:#bdf3ff;}.cls-2{clip-path:url(#clip-path);}.cls-3{fill:#cbcbcb;}.cls-4{fill:#bdbdbd;}.cls-5{fill:#0f2b43;}.cls-6{fill:#42dbb0;}.cls-7{fill:#204297;}.cls-8{fill:#f2f2f2;}</style><clipPath id="clip-path"><circle class="cls-1" cx="67" cy="67" r="66"/></clipPath></defs><title>Male Avatar</title><circle class="cls-1" cx="67" cy="67" r="66"/><g class="cls-2"><path class="cls-3" d="M80.21,90.14c4.09-3.7,7.15-9,9.12-15,1.2,1.64,3,0,3.24-1.55,0-2.35,4.34-13-.59-12.6l-.06.13c3.35-45.34-53.22-45.28-49.84,0L42,61c-4.93-.39-.57,10.23-.59,12.6.23,1.54,2,3.19,3.24,1.54,2,6,5,11.34,9.13,15a20.85,20.85,0,0,0,26.42,0Z"/><path class="cls-4" d="M79.66,94.05a19.86,19.86,0,0,1,.46-3.82l.09-.09a20.85,20.85,0,0,1-26.42,0l.09.09a19.19,19.19,0,0,1,.45,3.82,20.73,20.73,0,0,0,25.33,0Z"/><path class="cls-3" d="M117.47,113c-5.41-8.89-23.38-9.14-31.12-9.09-5,0-6.79-4.91-6.69-9.86a20.73,20.73,0,0,1-25.33,0c.11,5-1.69,9.86-6.68,9.86-7.74,0-25.71.2-31.12,9.09s-8.31,20-8.31,20H125.78S122.88,121.89,117.47,113Z"/><path class="cls-5" d="M89.82,66.85S87.7,47.39,83.94,45c-1.8-1.17-4.79-1-7.73-.24a32.49,32.49,0,0,1-16.27,0c-3.1-.83-6.3-1.09-8.19.43-4.54,3.65-8.3,22.9-8.3,22.9s-7.52-23.45,0-34.18c0,0,5.86-7.19,5.86-9.29v2.1s3.54-5.42,1.77-8.85c0,0,3.32,1,4.32,2.76,0,0,2.1-4.42.77-6.75,0,0,6.09,2.55,7.75,5.2s2.21-2.32,1.1-3.54c0,0,7.75.34,10.85,3.1s1.43-1.39,1.43-1.39A13.47,13.47,0,0,1,87.48,28.92L90,27.71S98.86,44.91,89.82,66.85Z"/><path class="cls-6" d="M117.48,113c-5.42-8.89-23.39-9.14-31.13-9.09a5.76,5.76,0,0,1-5.21-3c-13.83,7.23-25.25,1.79-28.31,0a5.74,5.74,0,0,1-5.18,3c-7.74,0-25.71.2-31.12,9.09s-8.32,20-8.32,20H125.79S122.89,121.89,117.48,113Z"/><polygon class="cls-7" points="67.02 104.5 63.08 110.19 67 113.25 70.66 110.19 67.02 104.5"/><polygon class="cls-7" points="60.77 133 65.13 107.21 68.75 107.21 72.75 133 60.77 133"/><polygon class="cls-8" points="54.12 97.2 67 104.51 60.77 113.53 50.25 103.21 54.12 97.2"/><polygon class="cls-8" points="79.88 97.2 67 104.51 72.75 113.53 83.74 103.21 79.88 97.2"/></g></svg>