<svg id="Layer_1" data-name="Layer 1" xmlns="http://www.w3.org/2000/svg" xmlns:xlink="http://www.w3.org/1999/xlink" viewBox="0 0 134 134"><defs><style>.cls-1{fill:#bdf3ff;}.cls-2{clip-path:url(#clip-path);}.cls-3{fill:#cbcbcb;}.cls-4{fill:#bdbdbd;}.cls-5{fill:#0f2b43;}.cls-6{fill:#42dbb0;}.cls-7{fill:#204297;}</style><clipPath id="clip-path"><circle class="cls-1" cx="67" cy="67" r="66"/></clipPath></defs><title>Male Avatar</title><circle class="cls-1" cx="67" cy="67" r="66"/><g class="cls-2"><path class="cls-3" d="M80.21,90.14c4.09-3.7,7.15-9,9.12-15,1.2,1.64,3,0,3.24-1.55,0-2.35,4.34-13-.59-12.6l-.06.13c3.35-45.34-53.22-45.28-49.84,0L42,61c-4.93-.39-.57,10.23-.59,12.6.23,1.54,2,3.19,3.24,1.54,2,6,5,11.34,9.13,15a20.85,20.85,0,0,0,26.42,0Z"/><path class="cls-4" d="M79.66,94.05a19.86,19.86,0,0,1,.46-3.82l.09-.09a20.85,20.85,0,0,1-26.42,0l.09.09a19.19,19.19,0,0,1,.45,3.82,20.73,20.73,0,0,0,25.33,0Z"/><path class="cls-3" d="M117.47,113c-5.41-8.89-23.38-9.14-31.12-9.09-5,0-6.79-4.91-6.69-9.86a20.73,20.73,0,0,1-25.33,0c.11,5-1.69,9.86-6.68,9.86-7.74,0-25.71.2-31.12,9.09s-8.31,20-8.31,20H125.78S122.88,121.89,117.47,113Z"/><path class="cls-5" d="M96.21,44c-1.69-13.68-13.6-21.18-30.65-21.85S48.1,30.34,48.1,30.34c-17.59,3.61-10,19.94-10,19.94L44.18,67c3.24-.94,2.3-12.71,6.09-23,2.36-6.44,9.81-4.6,15.06-2.32a37.06,37.06,0,0,0,10.52,2.71c9.06,1,10.5,10.48,11.37,16.73A17.87,17.87,0,0,0,89.51,67l2.31-5.06a53.44,53.44,0,0,0,3.87-11.88A21.73,21.73,0,0,0,96.21,44Z"/><path class="cls-6" d="M117.47,113c-5.41-8.89-23.38-9.14-31.12-9.09-3.07,0-4.93-1.87-5.89-4.46L67,110.7,53.54,99.45h0c-.95,2.59-2.81,4.46-5.89,4.46-7.74,0-25.71.2-31.12,9.09s-8.31,20-8.31,20H125.78S122.88,121.89,117.47,113Z"/><polygon class="cls-7" points="53.54 99.45 67 110.7 59.17 119.94 47.65 103.91 53.54 99.45"/><polygon class="cls-7" points="80.46 99.45 67 110.7 74.83 119.94 86.35 103.91 80.46 99.45"/></g></svg>