<svg id="Layer_1" data-name="Layer 1" xmlns="http://www.w3.org/2000/svg" xmlns:xlink="http://www.w3.org/1999/xlink" viewBox="0 0 134 134"><defs><style>.cls-1{fill:#bdf3ff;}.cls-2{clip-path:url(#clip-path);}.cls-3{fill:#cbcbcb;}.cls-4{fill:#c7c7c7;}.cls-5{fill:#bdbdbd;}.cls-6{fill:#0f2b43;}.cls-7{fill:#204297;}.cls-8{fill:#f5f5f5;}</style><clipPath id="clip-path"><circle class="cls-1" cx="67" cy="67" r="66"/></clipPath></defs><title>Male Avatar</title><circle class="cls-1" cx="67" cy="67" r="66"/><g class="cls-2"><path class="cls-3" d="M117.47,113c-5.41-8.89-23.38-9.14-31.12-9.09-5,0-6.79-4.91-6.69-9.86a20.73,20.73,0,0,1-25.33,0c.11,5-1.69,9.86-6.68,9.86-7.74,0-25.71.2-31.12,9.09s-8.31,20-8.31,20H125.78S122.88,121.89,117.47,113Z"/><path class="cls-4" d="M66.27,111.72l-2.8-5.79-1.42,5A10.2,10.2,0,0,0,66.27,111.72Z"/><path class="cls-4" d="M67,111.85l2.88-5.79,1.37,4.83A13.6,13.6,0,0,1,67,111.85Z"/><path class="cls-3" d="M80.21,90.14c4.09-3.7,7.15-9,9.12-15,1.2,1.64,3,0,3.24-1.55,0-2.35,4.34-13-.59-12.6l-.06.13c3.35-45.34-53.22-45.28-49.84,0L42,61c-4.93-.39-.57,10.23-.59,12.6.23,1.54,2,3.19,3.24,1.54,2,6,5,11.34,9.13,15a20.85,20.85,0,0,0,26.42,0Z"/><path class="cls-5" d="M79.66,94.05a19.86,19.86,0,0,1,.46-3.82l.09-.09a20.85,20.85,0,0,1-26.42,0l.09.09a19.19,19.19,0,0,1,.45,3.82,20.73,20.73,0,0,0,25.33,0Z"/><path class="cls-6" d="M89.86,68.29s9.42-24.17-1.11-31c0,0,2.12-15.93-24.09-15.08a30.72,30.72,0,0,0-14.38,4c-6,3.49-12.37,10-10.73,21.41,3,20.69,4.58,20.64,4.58,20.64s3-10.27,3.64-15.56c.68-5.56,6.69-17.2,32.3-7.49a6,6,0,0,1,5.21,6.19C85.4,57.14,89.86,68.29,89.86,68.29Z"/><path class="cls-7" d="M117.47,112.15c-4.58-7.85-25-9.16-33.79-9.36-18.77,13.14-16.65,11.1-33.37-.16-8.76.24-29.2,1.76-33.73,9.52C11.17,121.42,8.27,133,8.27,133H125.78S122.89,121.42,117.47,112.15Z"/><polygon class="cls-8" points="53.77 98.79 63.47 105.93 60.57 116.2 49.68 102.65 53.77 98.79"/><polygon class="cls-8" points="80.33 98.66 69.88 106.06 72.78 116.33 83.68 102.78 80.33 98.66"/></g></svg>