<svg id="Layer_1" data-name="Layer 1" xmlns="http://www.w3.org/2000/svg" viewBox="0 0 400 400"><defs><style>.cls-1{fill:#203e78;}.cls-2{fill:#fdd300;}</style></defs><title>LOGO MAIN BLUE</title><path class="cls-1" d="M94.4,159A59.27,59.27,0,0,1,95,152.8c.21-2,.5-3.87.76-5.82,1.42-11.07,3.41-22,7-32.63a118.22,118.22,0,0,1,13-26.77,98.93,98.93,0,0,1,42.21-36.64c8.69-4,17.84-6.31,27.18-8.23,9.84-2,19.7-1.8,29.55-1.34,5.14.25,10.25,1.69,15.3,2.88a113.69,113.69,0,0,1,43.33,21c13.1,10,23.23,22.44,29.53,37.78a90.11,90.11,0,0,1,6.77,29.63A120.68,120.68,0,0,1,307,165.21a143.55,143.55,0,0,1-9.1,27.85c-2.21,4.94-4.73,9.75-7.15,14.61-.77,1.54-1.29,1.57-2.48.39-3.7-3.66-7.39-7.33-11.17-10.9-1.27-1.2-1.39-2.09-.37-3.58,4.36-6.39,6.92-13.56,8.77-21a104.46,104.46,0,0,0,2.95-29.63c-.75-18.13-5.31-35.09-16.29-49.86C263.1,80.87,251,72.89,236.53,68.37A106.09,106.09,0,0,0,201.84,64a107.45,107.45,0,0,0-38.23,7.63,101,101,0,0,0-40.14,29.89,134.5,134.5,0,0,0-18.65,30.23,158.72,158.72,0,0,0-8.45,23.41c-.2.77-.4,1.28-.67,2.28a18.11,18.11,0,0,1-1.16,3.06A8.93,8.93,0,0,1,94.4,159Z"/><path class="cls-2" d="M150.14,274a9.56,9.56,0,0,1,1.1-1.66,62.31,62.31,0,0,1,18-12.49,120.87,120.87,0,0,1,32.16-9.9c6.52-1,13.09-1.82,19.66-2.63,1.31-.16,1.62-.66,1.37-1.87q-3.15-15.79-6.26-31.62c-.69-3.5-1.4-7-2-10.5-.2-1.08-.54-1.45-1.7-1.05-2,.68-4.09,1.28-6.18,1.77a7.72,7.72,0,0,0-4.13,2.44c-2.88,3.1-5.93,6.06-9,9a12.92,12.92,0,0,1-2,1.32l-.42-.38a5.27,5.27,0,0,1,.41-1.11,87.09,87.09,0,0,0,9.66-20.12,22.18,22.18,0,0,0,1.25-9.85c-.63-4.45-3.59-6.16-7.52-3.91a48.73,48.73,0,0,0-9.91,7c-9.59,9.36-19,19-28.28,28.59-3.89,4-7.46,8.34-11.2,12.5a8,8,0,0,1-1.41,1l-.51-.41,14.3-26.69-.23-.53c-1.55,2.39-3.14,1.19-4.77.51-1.93-.81-3.92-1.46-5.87-2.23-1.12-.44-1.66-.13-1.94,1-1.94,8.14-3.93,16.27-5.89,24.41q-2.35,9.72-4.68,19.46c-.2.86-.36,1.74-.56,2.72a3.89,3.89,0,0,0,1.15.13c6.57-1.53,13.08-.6,19.54.57,5,.91,9.93,2.24,14.87,3.43a4.92,4.92,0,0,1,1.29.86c-.47.4-.89,1.08-1.42,1.17-7.45,1.34-14.91,2.75-22.4,3.83-8,1.15-16.06,2-24.09,3-3.87.47-4,.29-3-3.36,2.48-9.12,4.84-18.26,7.27-27.38,2.11-7.93,4.26-15.84,6.38-23.76q2.07-7.69,4.11-15.4c.53-2,1.08-2.22,3.07-1.5,5.2,1.88,9.77,4.92,14.35,7.94,1.17.77,2.33,1.57,3.75,2.54.67-1.3,1.41-2.48,1.91-3.75,3.19-8,6.51-16,9.41-24.15a46.21,46.21,0,0,0,2.1-10.6c.37-3.43-1.18-5-4.64-4.57a53.6,53.6,0,0,0-9,2.21c-2.68.81-5,2.69-8,2.57a11,11,0,0,1-1.58-.29,5.49,5.49,0,0,1,.35-1.55c2.52-4.37,5.43-8.46,10.18-10.58a28.35,28.35,0,0,1,7.93-2.33c6.28-.76,12.61-1.25,18.93-1.6,11.8-.64,22.23-4.89,31.62-11.82,3.44-2.54,6.52-5.58,9.79-8.36a7.88,7.88,0,0,1,1.55-.82,5.67,5.67,0,0,1,.55,1.64c.14,4.7-1.9,8.67-4.52,12.36-4.56,6.42-10.55,11.3-17.18,15.44-3.83,2.38-7.45,5-9.55,9.14a15.45,15.45,0,0,0-1.27,4.18c-.27,1.53.27,1.87,1.72,1.34,2.7-1,5.36-2.11,8.12-2.93a21,21,0,0,1,5.67-.88c3.3-.05,5.34,2.11,5.53,5.4.23,4-1,7.71-2.35,11.38-.7,2-1.55,3.88-2.38,5.8-.42,1-.24,1.53.92,1.53h3.91a1.82,1.82,0,0,1,2,1.49c1.85,6.53,3.73,13,5.59,19.57Q229,221.85,232.18,233q3.1,10.93,6.2,21.87c.32,1.14.71,2.27,1,3.41.41,1.57,0,1.91-1.63,1.62-4.83-.88-9.65-2-14.52-2.46a106.19,106.19,0,0,0-27.4,1.17,136.44,136.44,0,0,0-33.54,10.07c-3.5,1.56-6.89,3.39-10.33,5.09-.44.22-.9.39-1.35.58Z"/><path class="cls-1" d="M176.45,267.72a7.4,7.4,0,0,1,1.48-1.12c9.68-4.07,19.86-5.7,30.29-6a161.46,161.46,0,0,1,33.28,2.56,7.13,7.13,0,0,0,1.08,0,15.52,15.52,0,0,0-.26-1.63l-10.77-38.21q-2.33-8.23-4.63-16.49c-.37-1.3,0-1.8,1.31-1.39,2.05.65,4.07,1.38,6.05,2.22a2.83,2.83,0,0,1,1.28,1.46c3.28,8.55,6.58,17.1,9.75,25.69,2.22,6,4.37,12.12,6.32,18.26,1.87,5.87,3.44,11.84,5.14,17.76a36.5,36.5,0,0,1,1.09,3.9c.31,1.83-.21,2.24-2,1.92-10.75-1.89-21.48-3.94-32.26-5.62a248.63,248.63,0,0,0-35.3-3.22c-3.5,0-7,.34-10.5.51a7,7,0,0,1-1.11-.11Z"/><path class="cls-1" d="M114.89,264.34c2.91-.17,5.49-.25,8-.48,8.22-.76,16.44-1.58,24.66-2.34a3.86,3.86,0,0,1,1.18.32c-.26.39-.42,1-.78,1.15-3.71,1.92-7.37,3.95-11.19,5.63-6.21,2.75-12.9,3.75-19.54,4.84-5.3.87-10.61,1.72-15.59,3.88a1.85,1.85,0,0,1-1.27,0c-.14-.06-.18-.7-.08-1,1.74-5.44,3.53-10.86,5.27-16.29q4.65-14.53,9.24-29.09Q118,221,121.05,211a3.72,3.72,0,0,1,2.4-2.62c2.12-.78,4.18-1.71,6.29-2.52a1.78,1.78,0,0,1,1.41,0c.24.16.24.91.12,1.33q-5.79,20.22-11.63,40.42C118.08,253,116.56,258.45,114.89,264.34Z"/><path class="cls-2" d="M188,123.36a12.35,12.35,0,0,1,9.35,4c3.57,3.89,3.19,8.81-.79,12.26a13.5,13.5,0,0,1-18.65-1.2,7.93,7.93,0,0,1-.13-10.53A12.67,12.67,0,0,1,188,123.36Z"/><polygon class="cls-2" points="187.46 95.61 190.34 104.48 199.66 104.48 192.12 109.96 195 118.82 187.46 113.34 179.92 118.82 182.8 109.96 175.25 104.48 184.58 104.48 187.46 95.61"/><polygon class="cls-2" points="256.48 104.77 259.36 113.63 268.68 113.63 261.14 119.11 264.02 127.98 256.48 122.5 248.94 127.98 251.82 119.11 244.28 113.63 253.6 113.63 256.48 104.77"/><polygon class="cls-2" points="223.67 67.32 231.58 91.67 257.18 91.67 236.47 106.72 244.38 131.06 223.67 116.02 202.96 131.06 210.87 106.72 190.16 91.67 215.76 91.67 223.67 67.32"/><path class="cls-1" d="M226.38,104.22a1.18,1.18,0,0,1,1.41.23,2,2,0,0,1,.69,2.07,3.09,3.09,0,0,1-2.73,2.38,4.23,4.23,0,0,1-4.74-3.78,15.75,15.75,0,0,1,.3-5.47c.23-1.29.32-2.59.43-3.9a3.88,3.88,0,0,0-.11-1.12,1.64,1.64,0,0,1,1.35-2,1.41,1.41,0,0,1,1.72,1.5,31.8,31.8,0,0,1-.76,4.43c-.48,2-1.3,4-1.21,6.18a2.8,2.8,0,0,0,2.7,2.95,1.93,1.93,0,0,0,2.06-2.55C227.33,104.77,226.79,104.55,226.38,104.22Z"/><path class="cls-1" d="M223.12,110.42c-2.47,1.36-6.52.75-8.26-1.08s-1.49-4.72.58-5.8c1.39-.72,3-.68,3.57,1.36a5,5,0,0,0-.39-.52,1.87,1.87,0,0,0-3.12.57,3,3,0,0,0,.84,3.65,7.11,7.11,0,0,0,6.06,1.88Z"/><path class="cls-1" d="M220.74,94.93a6.37,6.37,0,0,0-.83-.45,1.85,1.85,0,0,0-2.08.25,1.82,1.82,0,0,0-.38,2.13,6.18,6.18,0,0,0,.85,1.3c.39.55.84,1.08,1.21,1.65a1.48,1.48,0,0,1-.11,1.81c0-1.35-1-1.85-1.8-2.5A10.7,10.7,0,0,1,216.34,98a2.73,2.73,0,0,1,.48-4.12C218.17,92.88,219.72,93.28,220.74,94.93Z"/><path class="cls-1" d="M225.34,92.65a3.31,3.31,0,0,0-4.47.25,2.15,2.15,0,0,1,1.82-1.75A2.22,2.22,0,0,1,225.34,92.65Z"/><path class="cls-1" d="M221.81,90.77a1.52,1.52,0,0,1,2.39-.15Z"/><path class="cls-1" d="M225.92,94.24s2.63-1.2,3.06,1.38-4.37,1.53-4.34,6.15c0,0,.85-2.28,2.38-2.54s3.93-1.53,3.45-4A2.56,2.56,0,0,0,225.92,94.24Z"/><path class="cls-1" d="M228.52,102.16a3.44,3.44,0,0,1,5,2.65c1.06,4.39-5.62,5.28-7.71,7.27a4.52,4.52,0,0,0-1.41,1.86s-.93-2.26,4.2-4.74,2.86-5.48,2.73-5.61A4.66,4.66,0,0,0,228.52,102.16Z"/><path class="cls-1" d="M10.28,311.54v-1.66h2.06a1.88,1.88,0,0,0,1.39-.55,6.16,6.16,0,0,0,1.13-2l11.51-30h2L41,309.88h3v1.66H27.71v-1.66h4.08L28.84,302H18.64l-2.22,5.72a1.71,1.71,0,0,0-.11.47c0,.21,0,.46,0,.74a.74.74,0,0,0,.39.67,2.11,2.11,0,0,0,1.1.24h3v1.66Zm8.91-11.13h9.1l-4.44-11.77Z"/><path class="cls-1" d="M45.12,294.2h9.09a10.37,10.37,0,0,1,4.92,1,7.27,7.27,0,0,1,2.92,2.9,9.35,9.35,0,0,1,1.09,4.63,9.45,9.45,0,0,1-.56,3.35,8,8,0,0,1-1.64,2.67,7.7,7.7,0,0,1-2.35,1.78,10.39,10.39,0,0,1-2.69.74,17.83,17.83,0,0,1-2.77.28h-8v-2.4h.6a2.68,2.68,0,0,0,1-.12,1,1,0,0,0,.38-.42,3.25,3.25,0,0,0,.1-1v-9.47a3.06,3.06,0,0,0-.1-1,.74.74,0,0,0-.35-.35,2.83,2.83,0,0,0-1-.12h-.6ZM51.47,297v10.79a2.2,2.2,0,0,0,.06.68.48.48,0,0,0,.29.25,3.48,3.48,0,0,0,.93.07,6.64,6.64,0,0,0,3.18-.63,4.54,4.54,0,0,0,1.86-2,7.05,7.05,0,0,0,.71-3.3,7.68,7.68,0,0,0-.66-3.3,4.41,4.41,0,0,0-1.65-2,5.67,5.67,0,0,0-2.81-.57Z"/><path class="cls-1" d="M71.28,294.2h3.89l5.21,13.39a3.41,3.41,0,0,0,.75,1.32,2.1,2.1,0,0,0,1.21.23v2.4h-8.2v-2.4h.49a1.84,1.84,0,0,0,1-.18.54.54,0,0,0,.28-.44,3.67,3.67,0,0,0-.24-.92L75.11,306H69.84l-.65,1.75a3.15,3.15,0,0,0-.2.74.56.56,0,0,0,.14.36.94.94,0,0,0,.47.23,6.71,6.71,0,0,0,1.17.05v2.4H64.06v-2.4A2.75,2.75,0,0,0,65,309a1.21,1.21,0,0,0,.49-.33,3.13,3.13,0,0,0,.43-.84Zm-.52,9.34H74.2l-1.68-4.76Z"/><path class="cls-1" d="M83.27,294.2H94a15.76,15.76,0,0,1,2.26.19,5.62,5.62,0,0,1,2.21.82,4.61,4.61,0,0,1,1.54,1.6,4.44,4.44,0,0,1,.54,2.19,4,4,0,0,1-1.41,3.2,7,7,0,0,1-3.33,1.6L99.34,308l.15.19a3.29,3.29,0,0,0,.64.62,2,2,0,0,0,.57.3,3.19,3.19,0,0,0,.79.08h.75v2.4H96.68l-5.56-7.47H89.67v3.46a4.21,4.21,0,0,0,.1,1.14.71.71,0,0,0,.32.36,2.33,2.33,0,0,0,.88.11h.79v2.4H83.27v-2.4h.78a2,2,0,0,0,.87-.13.85.85,0,0,0,.38-.39,3.85,3.85,0,0,0,.06-.93v-9.76a2.55,2.55,0,0,0-.09-.81.54.54,0,0,0-.31-.32,1.67,1.67,0,0,0-.69-.14l-.35,0h-.65Zm6.4,2.85v4.49h2.58a7,7,0,0,0,2.26-.28,2.47,2.47,0,0,0,1.14-.8,2.14,2.14,0,0,0,.37-1.27,1.94,1.94,0,0,0-.35-1.18,2.06,2.06,0,0,0-1-.72,6.71,6.71,0,0,0-2.13-.24Z"/><path class="cls-1" d="M116.25,294.2l1.49,5.82-2.33.66a8.55,8.55,0,0,0-2.61-3.05,5.62,5.62,0,0,0-3.12-1,2.86,2.86,0,0,0-1.68.44,1.21,1.21,0,0,0-.62,1,1.54,1.54,0,0,0,.56,1.13,5.06,5.06,0,0,0,2,.94l3.33,1a8.29,8.29,0,0,1,3.95,2.11,4.55,4.55,0,0,1,1.17,3.1,4.84,4.84,0,0,1-1.79,3.8,7.33,7.33,0,0,1-5,1.72,8.86,8.86,0,0,1-2.54-.35,9.77,9.77,0,0,1-2.41-1.19l-.55,1.24H104.3l-1.23-6.72,2.33-.56a8,8,0,0,0,2.55,3.42,6,6,0,0,0,3.81,1.38,4.31,4.31,0,0,0,1.55-.24,2,2,0,0,0,.92-.66,1.43,1.43,0,0,0,.31-.87,1.56,1.56,0,0,0-.72-1.28,8.68,8.68,0,0,0-2.56-1.05l-2.9-.85a13.63,13.63,0,0,1-1.78-.7,6.46,6.46,0,0,1-1.73-1.08,4.59,4.59,0,0,1-.63-5.82,5.39,5.39,0,0,1,2.3-1.88,7.91,7.91,0,0,1,3.4-.72,7.32,7.32,0,0,1,4.06,1.16l.49-.87Z"/><path class="cls-1" d="M119.91,294.2h8.47v2.4h-.78a2.15,2.15,0,0,0-.88.13.72.72,0,0,0-.33.38,3.29,3.29,0,0,0-.1,1.05v3h6.31v-3.25a3,3,0,0,0-.07-.81.7.7,0,0,0-.34-.41,3.07,3.07,0,0,0-1-.11h-.66v-2.4H139v2.4h-.71a2.5,2.5,0,0,0-1,.12.75.75,0,0,0-.33.35,3.86,3.86,0,0,0-.09,1.09v9.39a3.29,3.29,0,0,0,.12,1.13.7.7,0,0,0,.36.36,3.58,3.58,0,0,0,1.11.1h.5v2.4h-8.49v-2.4h.56a3.07,3.07,0,0,0,1.06-.12.69.69,0,0,0,.39-.36,3.58,3.58,0,0,0,.1-1.11v-3.66h-6.31v3.66a4.55,4.55,0,0,0,.07,1.08.66.66,0,0,0,.39.41,3.37,3.37,0,0,0,1,.1h.58v2.4h-8.47v-2.4h.58a2.93,2.93,0,0,0,1-.12.77.77,0,0,0,.4-.35,2.89,2.89,0,0,0,.1-1v-9.42a4,4,0,0,0-.1-1.15.77.77,0,0,0-.34-.39,1.91,1.91,0,0,0-.87-.13h-.78Z"/><path class="cls-1" d="M155.81,294.2h8.44v2.4h-.72a2.4,2.4,0,0,0-.95.12.69.69,0,0,0-.32.37,3.7,3.7,0,0,0-.1,1.13v6.95a12.07,12.07,0,0,1-.17,2.37,4.89,4.89,0,0,1-1.14,2.11,5.81,5.81,0,0,1-2.29,1.62,8.8,8.8,0,0,1-3.34.57,8,8,0,0,1-3.53-.71,5.65,5.65,0,0,1-2.3-1.95,4.58,4.58,0,0,1-.83-2.56,2.84,2.84,0,0,1,.71-2,2.3,2.3,0,0,1,1.75-.77,2.13,2.13,0,0,1,1.08.25,1.79,1.79,0,0,1,.71.73,2.27,2.27,0,0,1,.26,1v.81a2.73,2.73,0,0,0,.33,1.3,1.72,1.72,0,0,0,.78.75,2.58,2.58,0,0,0,1.22.28,2.26,2.26,0,0,0,1.52-.52,2.51,2.51,0,0,0,.83-1.38,11,11,0,0,0,.12-2.06v-7.2a3.32,3.32,0,0,0-.05-.71.73.73,0,0,0-.34-.44,2,2,0,0,0-.84-.13h-.83Z"/><path class="cls-1" d="M165.29,294.2h8.47v2.4h-.84a1.75,1.75,0,0,0-.81.14.85.85,0,0,0-.36.39,3.24,3.24,0,0,0-.11,1v6.31a7.3,7.3,0,0,0,.36,2.64,2.67,2.67,0,0,0,1.07,1.32,3.22,3.22,0,0,0,1.74.45,3.34,3.34,0,0,0,1.81-.49,2.75,2.75,0,0,0,1.14-1.26,6.67,6.67,0,0,0,.35-2.53v-7A1.25,1.25,0,0,0,178,297a.76.76,0,0,0-.39-.34,3,3,0,0,0-.89-.08H176v-2.4h7.16v2.4h-.56a3.26,3.26,0,0,0-1,.1.92.92,0,0,0-.43.44,2.86,2.86,0,0,0-.1,1V305a8.15,8.15,0,0,1-.55,3.17,5.69,5.69,0,0,1-2.42,2.71,7.71,7.71,0,0,1-3.93,1,7.82,7.82,0,0,1-2.87-.49,6.71,6.71,0,0,1-2.22-1.4,5.28,5.28,0,0,1-1.33-1.94,9.16,9.16,0,0,1-.38-3v-6.7a4.11,4.11,0,0,0-.1-1.18.7.7,0,0,0-.32-.39,1.91,1.91,0,0,0-.87-.13h-.8Z"/><path class="cls-1" d="M184.64,294.2h7l5.08,10.12v-6.19a3.15,3.15,0,0,0-.09-1,.8.8,0,0,0-.33-.42,1.89,1.89,0,0,0-.82-.12h-.85v-2.4h7.15v2.4H201a1.92,1.92,0,0,0-.85.14.74.74,0,0,0-.35.37,3.47,3.47,0,0,0-.1,1v13.41h-3.56l-6.44-12.78v8.94a3.21,3.21,0,0,0,.09,1,.68.68,0,0,0,.33.34,2.06,2.06,0,0,0,.84.12h.82v2.4h-7.17v-2.4h.74a2.31,2.31,0,0,0,.85-.1.88.88,0,0,0,.37-.37,1.74,1.74,0,0,0,.13-.78v-9.95a2.1,2.1,0,0,0-.12-.83.82.82,0,0,0-.34-.39,1.49,1.49,0,0,0-.7-.12h-.93Z"/><path class="cls-1" d="M203.35,294.2h8.46v2.4H211a2.18,2.18,0,0,0-.89.12.73.73,0,0,0-.32.37,3.05,3.05,0,0,0-.1,1v9.59a3.54,3.54,0,0,0,.08,1,.56.56,0,0,0,.3.32,1.63,1.63,0,0,0,.78.15h.92v2.4h-8.46v-2.4H204a2.79,2.79,0,0,0,1-.1.65.65,0,0,0,.33-.34,2.53,2.53,0,0,0,.11-.91v-9.63a3.38,3.38,0,0,0-.11-1.07.78.78,0,0,0-.35-.39,2.31,2.31,0,0,0-.85-.1h-.78Z"/><path class="cls-1" d="M222.92,293.91a9.11,9.11,0,0,1,6.69,2.51,8.65,8.65,0,0,1,2.55,6.45,9.28,9.28,0,0,1-1.17,4.69,8,8,0,0,1-3.22,3.17,10.37,10.37,0,0,1-5,1.11,9.27,9.27,0,0,1-6.29-2.11,8.55,8.55,0,0,1-3-6.81,8.68,8.68,0,0,1,2.59-6.49A9.32,9.32,0,0,1,222.92,293.91Zm.05,2.75a3.82,3.82,0,0,0-3.14,1.48,7.56,7.56,0,0,0-1.47,4.81,7.26,7.26,0,0,0,1.37,4.66,4,4,0,0,0,6.24,0,7.34,7.34,0,0,0,1.38-4.68,9,9,0,0,0-.59-3.47,4.6,4.6,0,0,0-1.6-2.1A3.8,3.8,0,0,0,223,296.66Z"/><path class="cls-1" d="M233.94,294.2h10.69a15.65,15.65,0,0,1,2.26.19,5.6,5.6,0,0,1,2.22.82,4.58,4.58,0,0,1,1.53,1.6,4.34,4.34,0,0,1,.55,2.19,4,4,0,0,1-1.41,3.2,7,7,0,0,1-3.34,1.6L250,308l.15.19a3.28,3.28,0,0,0,.63.62,2,2,0,0,0,.57.3,3.28,3.28,0,0,0,.8.08h.74v2.4h-5.55l-5.57-7.47h-1.44v3.46a3.83,3.83,0,0,0,.1,1.14.69.69,0,0,0,.31.36,2.37,2.37,0,0,0,.88.11h.8v2.4h-8.49v-2.4h.77a2,2,0,0,0,.87-.13.8.8,0,0,0,.38-.39,3.62,3.62,0,0,0,.07-.93v-9.76a2.49,2.49,0,0,0-.1-.81.5.5,0,0,0-.3-.32,1.67,1.67,0,0,0-.69-.14l-.35,0h-.65Zm6.4,2.85v4.49h2.57a7.1,7.1,0,0,0,2.27-.28,2.43,2.43,0,0,0,1.13-.8,2.14,2.14,0,0,0,.38-1.27,2,2,0,0,0-.35-1.18,2.11,2.11,0,0,0-1-.72,6.79,6.79,0,0,0-2.13-.24Z"/><path class="cls-1" d="M275.85,294.2h1.76l1.71,6.23-2.32.67a11.85,11.85,0,0,0-2.17-3.16,4.53,4.53,0,0,0-3.07-1.28,4.1,4.1,0,0,0-2.26.68,4.52,4.52,0,0,0-1.66,2,7.11,7.11,0,0,0-.62,3.06,7.59,7.59,0,0,0,1.41,4.6,4.39,4.39,0,0,0,3.7,1.92,5.21,5.21,0,0,0,2.8-.83,9.75,9.75,0,0,0,2.89-2.77l1.93,1.43a14.2,14.2,0,0,1-3.43,3.57,9.66,9.66,0,0,1-5.34,1.55,8.55,8.55,0,0,1-4.43-1.17,8.7,8.7,0,0,1-3.16-3.29,9.28,9.28,0,0,1-1.18-4.61,9,9,0,0,1,1.15-4.53,8.27,8.27,0,0,1,3.13-3.19,9.33,9.33,0,0,1,8.75-.1Z"/><path class="cls-1" d="M290.61,293.91a9.09,9.09,0,0,1,6.68,2.51,8.62,8.62,0,0,1,2.56,6.45,9.28,9.28,0,0,1-1.17,4.69,8,8,0,0,1-3.23,3.17,10.3,10.3,0,0,1-5,1.11,9.27,9.27,0,0,1-6.29-2.11,8.55,8.55,0,0,1-3-6.81,8.68,8.68,0,0,1,2.59-6.49A9.32,9.32,0,0,1,290.61,293.91Zm.05,2.75a3.82,3.82,0,0,0-3.14,1.48,7.56,7.56,0,0,0-1.47,4.81,7.26,7.26,0,0,0,1.37,4.66,4,4,0,0,0,6.24,0,7.34,7.34,0,0,0,1.38-4.68,9,9,0,0,0-.59-3.47,4.67,4.67,0,0,0-1.6-2.1A3.8,3.8,0,0,0,290.66,296.66Z"/><path class="cls-1" d="M301.75,294.2h8.46v2.4h-.74a2.85,2.85,0,0,0-.77.06.87.87,0,0,0-.44.38,1.85,1.85,0,0,0-.13.82v9.9a3.27,3.27,0,0,0,.05.74.43.43,0,0,0,.23.21,1.72,1.72,0,0,0,.67.08,6.89,6.89,0,0,0,2.68-.43,4.94,4.94,0,0,0,1.83-1.4,8.37,8.37,0,0,0,1.4-2.61l2.28.78L315,311.54H301.75v-2.4h.83a1.67,1.67,0,0,0,.76-.13.85.85,0,0,0,.38-.37,1.87,1.87,0,0,0,.12-.8V298a2.45,2.45,0,0,0-.12-.9.81.81,0,0,0-.33-.39,1.46,1.46,0,0,0-.72-.13h-.92Z"/><path class="cls-1" d="M318,294.2h8.47v2.4h-.74a3,3,0,0,0-.78.06.85.85,0,0,0-.43.38,1.83,1.83,0,0,0-.14.82v9.9a2.57,2.57,0,0,0,.06.74.37.37,0,0,0,.23.21,1.69,1.69,0,0,0,.67.08,6.92,6.92,0,0,0,2.68-.43,5,5,0,0,0,1.82-1.4,8.17,8.17,0,0,0,1.4-2.61l2.29.78-2.29,6.41H318v-2.4h.83a1.75,1.75,0,0,0,.77-.13.83.83,0,0,0,.37-.37,1.87,1.87,0,0,0,.12-.8V298a2.45,2.45,0,0,0-.12-.9.72.72,0,0,0-.33-.39,1.41,1.41,0,0,0-.72-.13H318Z"/><path class="cls-1" d="M334.28,294.2h14.47l2,5.48-2.25.81a7.45,7.45,0,0,0-1.33-2.16,3.75,3.75,0,0,0-1.69-1.09,7.8,7.8,0,0,0-2.16-.26h-2.65v4.32h.87a4.22,4.22,0,0,0,1.33-.14,1,1,0,0,0,.49-.45,3.18,3.18,0,0,0,.15-1.21v-.66h2.21v7.35h-2.21v-.75a2.62,2.62,0,0,0-.18-1.12,1,1,0,0,0-.49-.47,4.73,4.73,0,0,0-1.38-.13h-.79v4a2.75,2.75,0,0,0,.06.77.46.46,0,0,0,.25.22,2.56,2.56,0,0,0,.78.07h1.45a7.18,7.18,0,0,0,2.75-.47,5.18,5.18,0,0,0,2-1.51,7.15,7.15,0,0,0,1.35-2.48l2.27.79-2.27,6.44h-15v-2.4h.43a3.7,3.7,0,0,0,1.17-.12.73.73,0,0,0,.42-.44,4.7,4.7,0,0,0,.07-1.05v-9.45a3,3,0,0,0-.11-1,.75.75,0,0,0-.33-.35,2.12,2.12,0,0,0-.88-.12h-.77Z"/><path class="cls-1" d="M362.8,302.29h8.46v2.43h-.63a2.29,2.29,0,0,0-.85.11.72.72,0,0,0-.34.35,2.5,2.5,0,0,0-.11.93v5.43h-2.55l-.66-1.24a9.6,9.6,0,0,1-2.42,1.16,9.1,9.1,0,0,1-2.61.38,8.3,8.3,0,0,1-7.41-4.39,9.58,9.58,0,0,1-1.13-4.65,9.2,9.2,0,0,1,1.12-4.56,8.24,8.24,0,0,1,3.14-3.17,8.6,8.6,0,0,1,4.38-1.16,8.91,8.91,0,0,1,2.28.29,7.07,7.07,0,0,1,1.94.77l.46-.77h1.74l1.57,5.75-2.29.74a15.07,15.07,0,0,0-1.85-2.57,4.89,4.89,0,0,0-1.55-1.07,4.16,4.16,0,0,0-1.71-.39,3.84,3.84,0,0,0-2.2.69,4.58,4.58,0,0,0-1.63,2,7.82,7.82,0,0,0-.59,3.18,8.76,8.76,0,0,0,.65,3.55,4.91,4.91,0,0,0,1.71,2.23A4,4,0,0,0,362,309a4.08,4.08,0,0,0,1.7-.36,2.56,2.56,0,0,0,1.1-.81,2.13,2.13,0,0,0,.3-1.2V306a2.29,2.29,0,0,0-.09-.83.86.86,0,0,0-.37-.36,2.46,2.46,0,0,0-.9-.11h-1Z"/><path class="cls-1" d="M372.46,294.2h14.48l2,5.48-2.25.81a7.68,7.68,0,0,0-1.34-2.16,3.7,3.7,0,0,0-1.69-1.09,7.8,7.8,0,0,0-2.16-.26h-2.65v4.32h.88a4.18,4.18,0,0,0,1.32-.14.94.94,0,0,0,.49-.45,3.18,3.18,0,0,0,.15-1.21v-.66h2.21v7.35h-2.21v-.75a2.62,2.62,0,0,0-.18-1.12,1,1,0,0,0-.49-.47,4.73,4.73,0,0,0-1.38-.13h-.79v4a2.59,2.59,0,0,0,.07.77.4.4,0,0,0,.24.22,2.56,2.56,0,0,0,.78.07h1.45a7.18,7.18,0,0,0,2.75-.47,5.21,5.21,0,0,0,2-1.51,7.3,7.3,0,0,0,1.34-2.48l2.28.79-2.28,6.44h-15v-2.4h.43a3.7,3.7,0,0,0,1.17-.12.73.73,0,0,0,.42-.44,4.12,4.12,0,0,0,.07-1.05v-9.45a3,3,0,0,0-.11-1,.75.75,0,0,0-.33-.35,2.12,2.12,0,0,0-.88-.12h-.77Z"/><path class="cls-1" d="M10.18,318v-1.66h34V318Z"/><path class="cls-1" d="M44.18,318v-1.66H389.82V318Z"/><path class="cls-1" d="M14,334.55,19.51,322h2.86L28,334.55H25l-4.6-11.05h1.17l-4.6,11.05Zm2.81-2.68.73-2.2H24l.75,2.2Z"/><path class="cls-1" d="M34.35,334.55V322h5.42a7.11,7.11,0,0,1,2.9.54,4.48,4.48,0,0,1,1.87,6.4,4.08,4.08,0,0,1-1.87,1.54,7.29,7.29,0,0,1-2.9.53H35.94l1.33-1.25v4.75Zm2.92-4.43-1.33-1.38h3.67a3,3,0,0,0,2-.57,2,2,0,0,0,.68-1.61,2,2,0,0,0-.68-1.6,3.1,3.1,0,0,0-2-.56H35.94L37.27,323Zm5.06,4.43L39.18,330h3.11l3.15,4.54Z"/><path class="cls-1" d="M50.37,332.23h6.82v2.32H47.5V322H57v2.32H50.37Zm-.21-5.17h6v2.27h-6Z"/><path class="cls-1" d="M63.07,334.55,57.65,322H60.8l4.72,11.08H63.68L68.47,322h2.88l-5.42,12.51Z"/><path class="cls-1" d="M78.3,334.77a7.55,7.55,0,0,1-2.72-.48,6.87,6.87,0,0,1-2.18-1.36A6.18,6.18,0,0,1,72,330.87a6.78,6.78,0,0,1,0-5.16,6.1,6.1,0,0,1,1.44-2,6.59,6.59,0,0,1,2.17-1.36,7.32,7.32,0,0,1,2.73-.49,7.53,7.53,0,0,1,2.73.48,6.31,6.31,0,0,1,2.17,1.35,6.14,6.14,0,0,1,1.44,2.05,6.83,6.83,0,0,1,0,5.18,6.09,6.09,0,0,1-1.44,2.06A6.31,6.31,0,0,1,81,334.29,7.53,7.53,0,0,1,78.3,334.77Zm0-2.45a3.93,3.93,0,0,0,1.55-.3,3.59,3.59,0,0,0,1.24-.84,3.63,3.63,0,0,0,.83-1.27,4.5,4.5,0,0,0,0-3.23,3.73,3.73,0,0,0-.83-1.27,3.59,3.59,0,0,0-1.24-.84,4.15,4.15,0,0,0-3.1,0,3.45,3.45,0,0,0-1.25.84,4,4,0,0,0-.82,1.27,4.64,4.64,0,0,0,0,3.23,3.91,3.91,0,0,0,.82,1.27,3.45,3.45,0,0,0,1.25.84A3.93,3.93,0,0,0,78.3,332.32Z"/><path class="cls-1" d="M87.33,334.55V322h2.92v10.15h6.24v2.36Z"/><path class="cls-1" d="M103.53,334.77A5.2,5.2,0,0,1,97.86,329v-7h2.92V329a3.69,3.69,0,0,0,.73,2.56,3,3,0,0,0,4.09,0,3.69,3.69,0,0,0,.74-2.56V322h2.84v7a5.2,5.2,0,0,1-5.65,5.74Z"/><path class="cls-1" d="M114.44,334.55V324.4h-4V322h10.91v2.36h-4v10.15Z"/><path class="cls-1" d="M122.89,334.55V322h2.92v12.51Z"/><path class="cls-1" d="M134.82,334.77a7.55,7.55,0,0,1-2.72-.48,6.87,6.87,0,0,1-2.18-1.36,6.18,6.18,0,0,1-1.44-2.06,6.78,6.78,0,0,1,0-5.16,6.1,6.1,0,0,1,1.44-2,6.49,6.49,0,0,1,2.17-1.36,7.32,7.32,0,0,1,2.73-.49,7.53,7.53,0,0,1,2.73.48,6.4,6.4,0,0,1,2.17,1.35,6.14,6.14,0,0,1,1.44,2.05,6.83,6.83,0,0,1,0,5.18,6.09,6.09,0,0,1-1.44,2.06,6.4,6.4,0,0,1-2.17,1.35A7.53,7.53,0,0,1,134.82,334.77Zm0-2.45a4,4,0,0,0,1.55-.3,3.59,3.59,0,0,0,1.24-.84,3.78,3.78,0,0,0,.83-1.27,4.64,4.64,0,0,0,0-3.23,3.88,3.88,0,0,0-.83-1.27,3.59,3.59,0,0,0-1.24-.84,4,4,0,0,0-1.55-.3,4,4,0,0,0-1.56.3,3.5,3.5,0,0,0-1.24.84,4,4,0,0,0-.82,1.27,4.5,4.5,0,0,0,0,3.23,3.91,3.91,0,0,0,.82,1.27,3.5,3.5,0,0,0,1.24.84A4,4,0,0,0,134.82,332.32Z"/><path class="cls-1" d="M143.85,334.55V322h2.39l7.39,9h-1.16v-9h2.86v12.51h-2.4l-7.38-9h1.16v9Z"/><path class="cls-1" d="M156.65,334.55,162.21,322h2.86l5.62,12.51h-3l-4.6-11.05h1.16l-4.59,11.05Zm2.81-2.68.73-2.2h6.47l.75,2.2Z"/><path class="cls-1" d="M172,334.55V322h5.42a7.15,7.15,0,0,1,2.9.54,4.27,4.27,0,0,1,1.87,1.57,4.75,4.75,0,0,1,0,4.83,4.08,4.08,0,0,1-1.87,1.54,7.32,7.32,0,0,1-2.9.53h-3.83l1.33-1.25v4.75Zm2.92-4.43-1.33-1.38h3.67a3,3,0,0,0,2-.57,2,2,0,0,0,.68-1.61,2,2,0,0,0-.68-1.6,3.1,3.1,0,0,0-2-.56h-3.67l1.33-1.38Zm5.06,4.43L176.82,330h3.11l3.15,4.54Z"/><path class="cls-1" d="M188.06,334.55v-5.11l.67,1.75L183.2,322h3.09l4.22,7h-1.77l4.24-7h2.83l-5.49,9.15.66-1.75v5.11Z"/><path class="cls-1" d="M205.12,334.55,201,322h3l3.56,11.08h-1.5L209.79,322h2.68l3.58,11.08H214.6L218.25,322H221l-4.12,12.51h-3.07l-3.18-9.72h.82l-3.26,9.72Z"/><path class="cls-1" d="M220.57,334.55,226.13,322H229l5.62,12.51h-3L227,323.5h1.16l-4.59,11.05Zm2.81-2.68.73-2.2h6.47l.75,2.2Z"/><path class="cls-1" d="M238.25,334.55v-5.11l.67,1.75L233.39,322h3.09l4.22,7h-1.77l4.24-7H246l-5.49,9.15.66-1.75v5.11Z"/><path class="cls-1" d="M254.88,334.55V324.4h-4V322h10.9v2.36h-4v10.15Z"/><path class="cls-1" d="M269.22,334.77a7.55,7.55,0,0,1-2.72-.48,6.87,6.87,0,0,1-2.18-1.36,6.18,6.18,0,0,1-1.44-2.06,6.78,6.78,0,0,1,0-5.16,6.1,6.1,0,0,1,1.44-2,6.59,6.59,0,0,1,2.17-1.36,7.32,7.32,0,0,1,2.73-.49,7.53,7.53,0,0,1,2.73.48,6.31,6.31,0,0,1,2.17,1.35,6.14,6.14,0,0,1,1.44,2.05,6.83,6.83,0,0,1,0,5.18,6.09,6.09,0,0,1-1.44,2.06,6.31,6.31,0,0,1-2.17,1.35A7.53,7.53,0,0,1,269.22,334.77Zm0-2.45a3.93,3.93,0,0,0,1.55-.3,3.59,3.59,0,0,0,1.24-.84,3.78,3.78,0,0,0,.83-1.27,4.5,4.5,0,0,0,0-3.23,3.88,3.88,0,0,0-.83-1.27,3.59,3.59,0,0,0-1.24-.84,3.93,3.93,0,0,0-1.55-.3,4,4,0,0,0-1.56.3,3.5,3.5,0,0,0-1.24.84,4,4,0,0,0-.82,1.27,4.5,4.5,0,0,0,0,3.23,3.91,3.91,0,0,0,.82,1.27,3.5,3.5,0,0,0,1.24.84A4,4,0,0,0,269.22,332.32Z"/><path class="cls-1" d="M286.19,332.23H293v2.32h-9.69V322h9.46v2.32h-6.58Zm-.22-5.17h6v2.27h-6Z"/><path class="cls-1" d="M295.31,334.55V322H301a8,8,0,0,1,3.6.78A5.9,5.9,0,0,1,307,325a6.67,6.67,0,0,1,0,6.59,6,6,0,0,1-2.43,2.19,8.08,8.08,0,0,1-3.6.77Zm2.91-2.36h2.63a4.63,4.63,0,0,0,2.17-.47,3.47,3.47,0,0,0,1.43-1.36,4.46,4.46,0,0,0,0-4.14,3.51,3.51,0,0,0-1.43-1.35,4.76,4.76,0,0,0-2.17-.47h-2.63Z"/><path class="cls-1" d="M315.64,334.77A5.2,5.2,0,0,1,310,329v-7h2.91V329a3.69,3.69,0,0,0,.74,2.56,2.61,2.61,0,0,0,2,.8,2.66,2.66,0,0,0,2.06-.8,3.69,3.69,0,0,0,.73-2.56V322h2.85v7a5.21,5.21,0,0,1-5.65,5.74Z"/><path class="cls-1" d="M330.15,334.77a7.43,7.43,0,0,1-2.69-.48,6.13,6.13,0,0,1-2.15-1.35,6.24,6.24,0,0,1-1.42-2.05,6.86,6.86,0,0,1,0-5.19,6.3,6.3,0,0,1,3.59-3.4,7.85,7.85,0,0,1,5.64.09,5.68,5.68,0,0,1,2.22,1.65l-1.88,1.72a4.26,4.26,0,0,0-1.42-1.11,4,4,0,0,0-1.72-.38,4.16,4.16,0,0,0-1.61.3,3.55,3.55,0,0,0-1.27.83,3.63,3.63,0,0,0-.83,1.27,4.55,4.55,0,0,0,0,3.25,3.63,3.63,0,0,0,.83,1.27,3.55,3.55,0,0,0,1.27.83,4.16,4.16,0,0,0,1.61.3,3.87,3.87,0,0,0,1.72-.39,4.26,4.26,0,0,0,1.42-1.11l1.88,1.71a5.93,5.93,0,0,1-2.22,1.67A7.42,7.42,0,0,1,330.15,334.77Z"/><path class="cls-1" d="M335.38,334.55,340.94,322h2.86l5.61,12.51h-3l-4.59-11.05h1.16l-4.6,11.05Zm2.8-2.68.74-2.2h6.47l.75,2.2Z"/><path class="cls-1" d="M352.68,334.55V324.4h-4V322h10.9v2.36h-4v10.15Z"/><path class="cls-1" d="M364,332.23h6.81v2.32h-9.69V322h9.46v2.32H364Zm-.22-5.17h6v2.27h-6Z"/><path class="cls-1" d="M374.17,334.7a1.73,1.73,0,0,1-1.22-.49,1.81,1.81,0,0,1,0-2.52,1.82,1.82,0,0,1,2.46,0,1.84,1.84,0,0,1,0,2.52A1.75,1.75,0,0,1,374.17,334.7Z"/><path class="cls-1" d="M378.86,334.7a1.74,1.74,0,0,1-1.23-.49,1.81,1.81,0,0,1,0-2.52,1.73,1.73,0,0,1,1.23-.48,1.75,1.75,0,1,1,0,3.49Z"/><path class="cls-1" d="M383.54,334.7a1.73,1.73,0,0,1-1.22-.49,1.81,1.81,0,0,1,0-2.52,1.82,1.82,0,0,1,2.46,0,1.84,1.84,0,0,1,0,2.52A1.75,1.75,0,0,1,383.54,334.7Z"/><path class="cls-1" d="M113.17,354.31l-5.41-12.52h3.14l4.72,11.09h-1.84l4.79-11.09h2.88L116,354.31Z"/><path class="cls-1" d="M122.49,354.31V341.79h2.91v12.52Z"/><path class="cls-1" d="M132.48,354.52a10.29,10.29,0,0,1-2.89-.4,6.75,6.75,0,0,1-2.22-1.05l1-2.18a7.45,7.45,0,0,0,4.13,1.31,4.42,4.42,0,0,0,1.39-.18,1.74,1.74,0,0,0,.78-.48,1,1,0,0,0,.25-.68,1,1,0,0,0-.4-.8,3,3,0,0,0-1-.48c-.44-.13-.91-.25-1.42-.36s-1-.25-1.55-.41a6.41,6.41,0,0,1-1.43-.64,3.1,3.1,0,0,1-1-1.06,3.26,3.26,0,0,1-.38-1.64,3.53,3.53,0,0,1,.57-2A4,4,0,0,1,130,342.1a7.2,7.2,0,0,1,2.94-.52,9.73,9.73,0,0,1,2.34.28,7.05,7.05,0,0,1,2,.82l-.91,2.19a6.92,6.92,0,0,0-1.74-.73,6.58,6.58,0,0,0-1.71-.24,4,4,0,0,0-1.38.19,1.5,1.5,0,0,0-.76.51,1.15,1.15,0,0,0-.24.71,1,1,0,0,0,.39.81,2.87,2.87,0,0,0,1,.47c.43.12.9.23,1.43.34a14.21,14.21,0,0,1,1.55.42,6.81,6.81,0,0,1,1.42.64,2.89,2.89,0,0,1,1.44,2.65,3.39,3.39,0,0,1-.58,1.93,3.89,3.89,0,0,1-1.76,1.41A7.07,7.07,0,0,1,132.48,354.52Z"/><path class="cls-1" d="M138.11,354.31l5.57-12.52h2.86l5.61,12.52h-3l-4.59-11.05h1.16l-4.6,11.05Zm2.81-2.68.73-2.2h6.48l.75,2.2Z"/><path class="cls-1" d="M153.46,354.31V341.79h2.87v12.52Zm2.57-2.86-.14-3.35,6-6.31h3.21l-5.38,5.81-1.64,1.72Zm6,2.86-4.45-5.44,1.89-2.07,6,7.51Z"/><path class="cls-1" d="M169.6,354.31h-2.91V341.79h2.91Zm5.88-5.14h-6.11v-2.44h6.11Zm-.21-7.38h2.9v12.52h-2.9Z"/><path class="cls-1" d="M179.49,354.31l5.56-12.52h2.86l5.61,12.52h-3l-4.59-11.05h1.16l-4.59,11.05Zm2.8-2.68.74-2.2h6.47l.75,2.2Z"/><path class="cls-1" d="M194.83,354.31V341.79h5.42a6.9,6.9,0,0,1,2.89.55A4.21,4.21,0,0,1,205,343.9a4.33,4.33,0,0,1-1.88,6.4,6.9,6.9,0,0,1-2.89.56h-3.83l1.32-1.31v4.76Zm2.91-4.44-1.32-1.37h3.67a3,3,0,0,0,2-.58,2.23,2.23,0,0,0,0-3.21,3.12,3.12,0,0,0-2-.56h-3.67l1.32-1.38Z"/><path class="cls-1" d="M205.47,354.31,211,341.79h2.86l5.61,12.52h-3l-4.59-11.05H213l-4.6,11.05Zm2.8-2.68.74-2.2h6.47l.75,2.2Z"/><path class="cls-1" d="M222.77,354.31V344.15h-4v-2.36h10.91v2.36h-4v10.16Z"/><path class="cls-1" d="M231.23,354.31V341.79h2.4l7.38,9h-1.16v-9h2.86v12.52h-2.39l-7.39-9h1.16v9Z"/><path class="cls-1" d="M244,354.31l5.56-12.52h2.87l5.61,12.52h-3l-4.6-11.05h1.17L247,354.31Zm2.81-2.68.73-2.2h6.48l.75,2.2Z"/><path class="cls-1" d="M259.38,354.31V341.79h2.39l5.33,8.83h-1.27l5.22-8.83h2.41v12.52h-2.7l0-8.35h.53L267,353h-1.28l-4.28-7h.59v8.35Z"/></svg>